<svg xmlns="http://www.w3.org/2000/svg" width="139.804" height="198.761" viewBox="0 0 139.804 198.761">
  <g id="business-success" transform="translate(-30 -1019.08)">
    <g id="noun-business-succes-1880075" transform="translate(34.251 1019.08)">
      <path id="Tracé_321" data-name="Tracé 321" d="M188.836,17.664a17.636,17.636,0,1,1,17.636,17.663,17.65,17.65,0,0,1-17.636-17.663Zm71.209,56.841a7.521,7.521,0,0,1-1.629,1.092v47.417a6.2,6.2,0,0,1-6.183,6.192H223.927l-.008,21.14a8,8,0,0,1-16,0v-21.14h-2.9v21.14a8,8,0,0,1-15.995,0l-.008-21.14h-28.3a6.2,6.2,0,0,1-6.183-6.192V75.6a7.672,7.672,0,0,1-1.631-1.092,8.633,8.633,0,1,1,11.512-12.861,12.343,12.343,0,0,1,1.559,1.7h7l4.873-15.183a7.066,7.066,0,0,1,2.865-3.626,48.764,48.764,0,0,1,19.852-5.966l5.287,7.47L203.383,63.35h6.178l-2.472-17.307,5.289-7.47a48.756,48.756,0,0,1,19.848,5.963,7.035,7.035,0,0,1,2.874,3.629l4.873,15.183h7a12.479,12.479,0,0,1,1.559-1.7,8.633,8.633,0,1,1,11.513,12.861ZM223.971,63.349h2.315c-.459-1.412-.76-2.338-.76-2.341C224.4,61.008,224.045,62.2,223.971,63.349Zm-37.312,0h2.312c-.074-1.151-.431-2.338-1.555-2.332Zm68.662,13.287c-3.9.793-8.439.128-9.967-1.851-1.635-2.118-1.424-5.381-.172-8.339H167.766c1.253,2.957,1.463,6.221-.172,8.339-1.527,1.979-6.069,2.643-9.966,1.851v46.38a3.094,3.094,0,0,0,3.092,3.095h91.513a3.094,3.094,0,0,0,3.092-3.095V76.636Zm-28.26,7.276-10.208,8.48-8.64-8.787L185.547,99.529l4.278,6.088,17.508-12.3,9.02,9.17,16-13.293,5.258,5.258V79.149H222.3Zm-48.093-6.267h-3.624V116.19h62.263v-3.624H178.969Z" transform="translate(-127.478)"/>
      <g id="Groupe_75" data-name="Groupe 75" transform="translate(0.243 176.162)">
        <path id="Tracé_322" data-name="Tracé 322" d="M6.3-15.225a3.761,3.761,0,0,1-.857.318,3.852,3.852,0,0,1-.927.11,3.168,3.168,0,0,1-2.283-.8,2.883,2.883,0,0,1-.844-2.186,2.876,2.876,0,0,1,.844-2.186,3.161,3.161,0,0,1,2.283-.808,3.852,3.852,0,0,1,.927.11,3.76,3.76,0,0,1,.857.318v1.193a3.394,3.394,0,0,0-.817-.411,2.694,2.694,0,0,0-.848-.132,1.586,1.586,0,0,0-1.25.512,2.03,2.03,0,0,0-.455,1.4,2.037,2.037,0,0,0,.455,1.4,1.59,1.59,0,0,0,1.25.508A2.757,2.757,0,0,0,5.485-16a3.3,3.3,0,0,0,.817-.415Z" transform="translate(-1.391 20.781)"/>
      </g>
      <g id="Groupe_76" data-name="Groupe 76" transform="translate(6.326 177.602)">
        <path id="Tracé_323" data-name="Tracé 323" d="M5.574-14.4a1.912,1.912,0,0,0-.367-.124,1.511,1.511,0,0,0-.358-.044,1.008,1.008,0,0,0-.821.345,1.471,1.471,0,0,0-.287.976v2H2.359v-4.328H3.741v.711a1.757,1.757,0,0,1,.609-.618,1.648,1.648,0,0,1,.83-.2,1.472,1.472,0,0,1,.15.009c.055,0,.135.011.238.022Z" transform="translate(-2.359 15.687)"/>
      </g>
      <g id="Groupe_77" data-name="Groupe 77" transform="translate(9.902 177.602)">
        <path id="Tracé_324" data-name="Tracé 324" d="M5.85-13.431v.4H2.612a1.029,1.029,0,0,0,.353.729,1.306,1.306,0,0,0,.844.243A3.256,3.256,0,0,0,4.7-12.19a4.723,4.723,0,0,0,.941-.393v1.064a5.831,5.831,0,0,1-.981.278,5.09,5.09,0,0,1-.981.1,2.612,2.612,0,0,1-1.829-.6A2.158,2.158,0,0,1,1.2-13.413a2.18,2.18,0,0,1,.64-1.665A2.444,2.444,0,0,1,3.6-15.688a2.2,2.2,0,0,1,1.634.618,2.219,2.219,0,0,1,.614,1.639ZM4.428-13.89a.876.876,0,0,0-.23-.632.792.792,0,0,0-.6-.243.943.943,0,0,0-.654.225,1.036,1.036,0,0,0-.314.649Z" transform="translate(-1.203 15.688)"/>
      </g>
      <g id="Groupe_78" data-name="Groupe 78" transform="translate(15.269 177.602)">
        <path id="Tracé_325" data-name="Tracé 325" d="M3.469-13.2a1.192,1.192,0,0,0-.654.146.487.487,0,0,0-.216.433.514.514,0,0,0,.177.415.739.739,0,0,0,.486.146.872.872,0,0,0,.658-.278.979.979,0,0,0,.269-.7V-13.2Zm2.111-.521v2.469H4.189v-.64a1.787,1.787,0,0,1-.627.574,1.873,1.873,0,0,1-.848.177,1.538,1.538,0,0,1-1.091-.389,1.331,1.331,0,0,1-.42-1.02,1.25,1.25,0,0,1,.521-1.113,2.977,2.977,0,0,1,1.647-.358h.817v-.11a.512.512,0,0,0-.261-.477,1.642,1.642,0,0,0-.808-.155,3.719,3.719,0,0,0-.83.088,2.865,2.865,0,0,0-.707.265v-1.056a8.416,8.416,0,0,1,.888-.163,7.259,7.259,0,0,1,.9-.057,2.5,2.5,0,0,1,1.687.464,1.914,1.914,0,0,1,.521,1.5Z" transform="translate(-1.203 15.688)"/>
      </g>
      <g id="Groupe_79" data-name="Groupe 79" transform="translate(20.376 176.48)">
        <path id="Tracé_326" data-name="Tracé 326" d="M2.446-19.656v1.228H3.873v.989H2.446V-15.6a.534.534,0,0,0,.119.406.744.744,0,0,0,.473.106h.711v.989H2.566A1.624,1.624,0,0,1,1.4-14.44,1.616,1.616,0,0,1,1.06-15.6v-1.837H.375v-.989H1.06v-1.228Z" transform="translate(-0.375 19.656)"/>
      </g>
      <g id="Groupe_80" data-name="Groupe 80" transform="translate(24.394 177.602)">
        <path id="Tracé_327" data-name="Tracé 327" d="M5.85-13.431v.4H2.612a1.029,1.029,0,0,0,.353.729,1.306,1.306,0,0,0,.844.243A3.256,3.256,0,0,0,4.7-12.19a4.723,4.723,0,0,0,.941-.393v1.064a5.831,5.831,0,0,1-.981.278,5.09,5.09,0,0,1-.981.1,2.612,2.612,0,0,1-1.829-.6A2.158,2.158,0,0,1,1.2-13.413a2.18,2.18,0,0,1,.64-1.665A2.444,2.444,0,0,1,3.6-15.688a2.2,2.2,0,0,1,1.634.618,2.219,2.219,0,0,1,.614,1.639ZM4.428-13.89a.876.876,0,0,0-.23-.632.792.792,0,0,0-.6-.243.943.943,0,0,0-.654.225,1.036,1.036,0,0,0-.314.649Z" transform="translate(-1.203 15.688)"/>
      </g>
      <g id="Groupe_81" data-name="Groupe 81" transform="translate(29.779 176.021)">
        <path id="Tracé_328" data-name="Tracé 328" d="M4.517-18.962v-2.319H5.908v6.015H4.517v-.627a1.821,1.821,0,0,1-.627.561,1.74,1.74,0,0,1-.8.177,1.609,1.609,0,0,1-1.312-.636,2.518,2.518,0,0,1-.512-1.634,2.527,2.527,0,0,1,.512-1.639A1.609,1.609,0,0,1,3.09-19.7a1.688,1.688,0,0,1,.795.181,1.915,1.915,0,0,1,.632.557Zm-.91,2.8a.785.785,0,0,0,.676-.322,1.612,1.612,0,0,0,.234-.945,1.594,1.594,0,0,0-.234-.941.783.783,0,0,0-.676-.327.78.78,0,0,0-.676.327,1.586,1.586,0,0,0-.234.941,1.6,1.6,0,0,0,.234.945A.782.782,0,0,0,3.607-16.158Z" transform="translate(-1.266 21.281)"/>
      </g>
      <g id="Groupe_82" data-name="Groupe 82" transform="translate(38.51 176.021)">
        <path id="Tracé_329" data-name="Tracé 329" d="M4.66-16.158a.789.789,0,0,0,.68-.322,1.612,1.612,0,0,0,.234-.945,1.594,1.594,0,0,0-.234-.941.787.787,0,0,0-.68-.327.8.8,0,0,0-.685.327,1.6,1.6,0,0,0-.234.941,1.6,1.6,0,0,0,.234.941.793.793,0,0,0,.685.327Zm-.919-2.8a1.96,1.96,0,0,1,.632-.557,1.713,1.713,0,0,1,.8-.181,1.616,1.616,0,0,1,1.316.636A2.533,2.533,0,0,1,7-17.425a2.524,2.524,0,0,1-.512,1.634,1.616,1.616,0,0,1-1.316.636,1.753,1.753,0,0,1-.8-.177,1.912,1.912,0,0,1-.632-.561v.627H2.359v-6.015H3.742Z" transform="translate(-2.359 21.281)"/>
      </g>
      <g id="Groupe_83" data-name="Groupe 83" transform="translate(43.605 177.708)">
        <path id="Tracé_330" data-name="Tracé 330" d="M.344-15.312H1.726l1.166,2.937.989-2.937H5.264l-1.82,4.739A2.312,2.312,0,0,1,2.8-9.566a1.5,1.5,0,0,1-.963.291h-.8v-.91H1.47a.894.894,0,0,0,.512-.115.722.722,0,0,0,.252-.4l.04-.119Z" transform="translate(-0.344 15.312)"/>
      </g>
      <g id="Groupe_84" data-name="Groupe 84" transform="translate(52.09 176.021)">
        <path id="Tracé_331" data-name="Tracé 331" d="M4.66-16.158a.789.789,0,0,0,.68-.322,1.612,1.612,0,0,0,.234-.945,1.594,1.594,0,0,0-.234-.941.787.787,0,0,0-.68-.327.8.8,0,0,0-.685.327,1.6,1.6,0,0,0-.234.941,1.6,1.6,0,0,0,.234.941.793.793,0,0,0,.685.327Zm-.919-2.8a1.96,1.96,0,0,1,.632-.557,1.713,1.713,0,0,1,.8-.181,1.616,1.616,0,0,1,1.316.636A2.533,2.533,0,0,1,7-17.425a2.524,2.524,0,0,1-.512,1.634,1.616,1.616,0,0,1-1.316.636,1.753,1.753,0,0,1-.8-.177,1.912,1.912,0,0,1-.632-.561v.627H2.359v-6.015H3.742Z" transform="translate(-2.359 21.281)"/>
      </g>
      <g id="Groupe_85" data-name="Groupe 85" transform="translate(59.993 176.021)">
        <path id="Tracé_332" data-name="Tracé 332" d="M3.892-21.281v.91H3.128a.62.62,0,0,0-.411.106.488.488,0,0,0-.115.371v.3H3.787v.989H2.6v3.339H1.22V-18.6H.531v-.989H1.22v-.3a1.31,1.31,0,0,1,.393-1.047,1.839,1.839,0,0,1,1.223-.34Z" transform="translate(-0.531 21.281)"/>
      </g>
      <g id="Groupe_86" data-name="Groupe 86" transform="translate(63.626 177.602)">
        <path id="Tracé_333" data-name="Tracé 333" d="M3.469-13.2a1.192,1.192,0,0,0-.654.146.487.487,0,0,0-.216.433.514.514,0,0,0,.177.415.739.739,0,0,0,.486.146.872.872,0,0,0,.658-.278.979.979,0,0,0,.269-.7V-13.2Zm2.111-.521v2.469H4.189v-.64a1.787,1.787,0,0,1-.627.574,1.873,1.873,0,0,1-.848.177,1.538,1.538,0,0,1-1.091-.389,1.331,1.331,0,0,1-.42-1.02,1.25,1.25,0,0,1,.521-1.113,2.977,2.977,0,0,1,1.647-.358h.817v-.11a.512.512,0,0,0-.261-.477,1.642,1.642,0,0,0-.808-.155,3.719,3.719,0,0,0-.83.088,2.865,2.865,0,0,0-.707.265v-1.056a8.416,8.416,0,0,1,.888-.163,7.259,7.259,0,0,1,.9-.057,2.5,2.5,0,0,1,1.687.464,1.914,1.914,0,0,1,.521,1.5Z" transform="translate(-1.203 15.688)"/>
      </g>
      <g id="Groupe_87" data-name="Groupe 87" transform="translate(69.295 177.602)">
        <path id="Tracé_334" data-name="Tracé 334" d="M5.574-14.4a1.912,1.912,0,0,0-.367-.124,1.511,1.511,0,0,0-.358-.044,1.008,1.008,0,0,0-.821.345,1.471,1.471,0,0,0-.287.976v2H2.359v-4.328H3.741v.711a1.757,1.757,0,0,1,.609-.618,1.648,1.648,0,0,1,.83-.2,1.472,1.472,0,0,1,.15.009c.055,0,.135.011.238.022Z" transform="translate(-2.359 15.687)"/>
      </g>
      <g id="Groupe_88" data-name="Groupe 88" transform="translate(73.197 176.021)">
        <path id="Tracé_335" data-name="Tracé 335" d="M2.359-19.594H3.742v4.328H2.359Zm0-1.687H3.742v1.131H2.359Z" transform="translate(-2.359 21.281)"/>
      </g>
      <g id="Groupe_89" data-name="Groupe 89" transform="translate(75.584 177.602)">
        <path id="Tracé_336" data-name="Tracé 336" d="M3.469-13.2a1.192,1.192,0,0,0-.654.146.487.487,0,0,0-.216.433.514.514,0,0,0,.177.415.739.739,0,0,0,.486.146.872.872,0,0,0,.658-.278.979.979,0,0,0,.269-.7V-13.2Zm2.111-.521v2.469H4.189v-.64a1.787,1.787,0,0,1-.627.574,1.873,1.873,0,0,1-.848.177,1.538,1.538,0,0,1-1.091-.389,1.331,1.331,0,0,1-.42-1.02,1.25,1.25,0,0,1,.521-1.113,2.977,2.977,0,0,1,1.647-.358h.817v-.11a.512.512,0,0,0-.261-.477,1.642,1.642,0,0,0-.808-.155,3.719,3.719,0,0,0-.83.088,2.865,2.865,0,0,0-.707.265v-1.056a8.416,8.416,0,0,1,.888-.163,7.259,7.259,0,0,1,.9-.057,2.5,2.5,0,0,1,1.687.464,1.914,1.914,0,0,1,.521,1.5Z" transform="translate(-1.203 15.688)"/>
      </g>
      <g id="Groupe_90" data-name="Groupe 90" transform="translate(80.994 177.602)">
        <path id="Tracé_337" data-name="Tracé 337" d="M5.088-15.444v1.051a5.109,5.109,0,0,0-.857-.278,3.6,3.6,0,0,0-.782-.093,1.375,1.375,0,0,0-.587.1.321.321,0,0,0-.19.3.278.278,0,0,0,.146.252,1.381,1.381,0,0,0,.521.132l.243.035a2.96,2.96,0,0,1,1.431.446,1.2,1.2,0,0,1,.367.967,1.177,1.177,0,0,1-.512,1.042,2.725,2.725,0,0,1-1.519.345,6.236,6.236,0,0,1-.892-.066,7.14,7.14,0,0,1-.936-.2v-1.051a3.863,3.863,0,0,0,.844.3,4.057,4.057,0,0,0,.888.1,1.312,1.312,0,0,0,.609-.11.365.365,0,0,0,.2-.336.3.3,0,0,0-.141-.274,1.469,1.469,0,0,0-.561-.141l-.243-.031a2.527,2.527,0,0,1-1.294-.428,1.173,1.173,0,0,1-.371-.95,1.164,1.164,0,0,1,.468-1.02,2.521,2.521,0,0,1,1.449-.336,5.554,5.554,0,0,1,.8.062,8.828,8.828,0,0,1,.919.181Z" transform="translate(-1.453 15.687)"/>
      </g>
      <g id="Groupe_91" data-name="Groupe 91" transform="translate(0 183.935)">
        <path id="Tracé_338" data-name="Tracé 338" d="M3.892-21.281v.91H3.128a.62.62,0,0,0-.411.106.488.488,0,0,0-.115.371v.3H3.787v.989H2.6v3.339H1.22V-18.6H.531v-.989H1.22v-.3a1.31,1.31,0,0,1,.393-1.047,1.839,1.839,0,0,1,1.223-.34Z" transform="translate(-0.531 21.281)"/>
      </g>
      <g id="Groupe_92" data-name="Groupe 92" transform="translate(3.96 185.516)">
        <path id="Tracé_339" data-name="Tracé 339" d="M5.574-14.4a1.912,1.912,0,0,0-.367-.124,1.511,1.511,0,0,0-.358-.044,1.008,1.008,0,0,0-.821.345,1.471,1.471,0,0,0-.287.976v2H2.359v-4.328H3.741v.711a1.757,1.757,0,0,1,.609-.618,1.648,1.648,0,0,1,.83-.2,1.472,1.472,0,0,1,.15.009c.055,0,.135.011.238.022Z" transform="translate(-2.359 15.687)"/>
      </g>
      <g id="Groupe_93" data-name="Groupe 93" transform="translate(7.537 185.516)">
        <path id="Tracé_340" data-name="Tracé 340" d="M3.588-14.7a.816.816,0,0,0-.7.331,1.593,1.593,0,0,0-.243.954,1.593,1.593,0,0,0,.243.954.818.818,0,0,0,.7.327.8.8,0,0,0,.689-.327,1.6,1.6,0,0,0,.243-.954,1.6,1.6,0,0,0-.243-.954A.8.8,0,0,0,3.588-14.7Zm0-.989a2.412,2.412,0,0,1,1.745.605,2.206,2.206,0,0,1,.627,1.669,2.213,2.213,0,0,1-.627,1.669,2.419,2.419,0,0,1-1.745.6,2.438,2.438,0,0,1-1.753-.6A2.2,2.2,0,0,1,1.2-13.413a2.192,2.192,0,0,1,.632-1.669A2.43,2.43,0,0,1,3.588-15.688Z" transform="translate(-1.203 15.688)"/>
      </g>
      <g id="Groupe_94" data-name="Groupe 94" transform="translate(13.292 185.516)">
        <path id="Tracé_341" data-name="Tracé 341" d="M6.347-14.862a1.875,1.875,0,0,1,.623-.614,1.542,1.542,0,0,1,.795-.212,1.4,1.4,0,0,1,1.135.464,2,2,0,0,1,.393,1.334v2.637H7.9v-2.358c0-.038,0-.091,0-.159a1.23,1.23,0,0,0-.137-.663.476.476,0,0,0-.433-.208.689.689,0,0,0-.609.327,1.7,1.7,0,0,0-.221.936v2.124H5.115v-2.257a2.15,2.15,0,0,0-.124-.923.472.472,0,0,0-.442-.208.694.694,0,0,0-.614.327,1.669,1.669,0,0,0-.216.932v2.129H2.328v-4.328H3.719v.632A1.8,1.8,0,0,1,4.3-15.5a1.466,1.466,0,0,1,.729-.185,1.469,1.469,0,0,1,.795.216,1.363,1.363,0,0,1,.521.609Z" transform="translate(-2.328 15.688)"/>
      </g>
      <g id="Groupe_95" data-name="Groupe 95" transform="translate(23.743 184.395)">
        <path id="Tracé_342" data-name="Tracé 342" d="M2.446-19.656v1.228H3.873v.989H2.446V-15.6a.534.534,0,0,0,.119.406.744.744,0,0,0,.473.106h.711v.989H2.566A1.624,1.624,0,0,1,1.4-14.44,1.616,1.616,0,0,1,1.06-15.6v-1.837H.375v-.989H1.06v-1.228Z" transform="translate(-0.375 19.656)"/>
      </g>
      <g id="Groupe_96" data-name="Groupe 96" transform="translate(28.086 183.935)">
        <path id="Tracé_343" data-name="Tracé 343" d="M6.71-17.9v2.637H5.319v-2.01a7.517,7.517,0,0,0-.027-.782.831.831,0,0,0-.088-.314.564.564,0,0,0-.221-.208.649.649,0,0,0-.314-.075.8.8,0,0,0-.68.336,1.511,1.511,0,0,0-.247.923v2.129H2.359v-6.015H3.742v2.319a2.209,2.209,0,0,1,.663-.557,1.683,1.683,0,0,1,.777-.181,1.4,1.4,0,0,1,1.139.464A2.019,2.019,0,0,1,6.71-17.9Z" transform="translate(-2.359 21.281)"/>
      </g>
      <g id="Groupe_97" data-name="Groupe 97" transform="translate(33.394 185.516)">
        <path id="Tracé_344" data-name="Tracé 344" d="M5.85-13.431v.4H2.612a1.029,1.029,0,0,0,.353.729,1.306,1.306,0,0,0,.844.243A3.256,3.256,0,0,0,4.7-12.19a4.723,4.723,0,0,0,.941-.393v1.064a5.831,5.831,0,0,1-.981.278,5.09,5.09,0,0,1-.981.1,2.612,2.612,0,0,1-1.829-.6A2.158,2.158,0,0,1,1.2-13.413a2.18,2.18,0,0,1,.64-1.665A2.444,2.444,0,0,1,3.6-15.688a2.2,2.2,0,0,1,1.634.618,2.219,2.219,0,0,1,.614,1.639ZM4.428-13.89a.876.876,0,0,0-.23-.632.792.792,0,0,0-.6-.243.943.943,0,0,0-.654.225,1.036,1.036,0,0,0-.314.649Z" transform="translate(-1.203 15.688)"/>
      </g>
      <g id="Groupe_98" data-name="Groupe 98" transform="translate(41.906 184.182)">
        <path id="Tracé_345" data-name="Tracé 345" d="M2.578-20.406H4.239l2.1,3.957v-3.957H7.746v5.768H6.085L3.987-18.6v3.957H2.578Z" transform="translate(-2.578 20.406)"/>
      </g>
      <g id="Groupe_99" data-name="Groupe 99" transform="translate(48.141 185.516)">
        <path id="Tracé_346" data-name="Tracé 346" d="M3.588-14.7a.816.816,0,0,0-.7.331,1.593,1.593,0,0,0-.243.954,1.593,1.593,0,0,0,.243.954.818.818,0,0,0,.7.327.8.8,0,0,0,.689-.327,1.6,1.6,0,0,0,.243-.954,1.6,1.6,0,0,0-.243-.954A.8.8,0,0,0,3.588-14.7Zm0-.989a2.412,2.412,0,0,1,1.745.605,2.206,2.206,0,0,1,.627,1.669,2.213,2.213,0,0,1-.627,1.669,2.419,2.419,0,0,1-1.745.6,2.438,2.438,0,0,1-1.753-.6A2.2,2.2,0,0,1,1.2-13.413a2.192,2.192,0,0,1,.632-1.669A2.43,2.43,0,0,1,3.588-15.688Z" transform="translate(-1.203 15.688)"/>
      </g>
      <g id="Groupe_100" data-name="Groupe 100" transform="translate(53.857 185.622)">
        <path id="Tracé_347" data-name="Tracé 347" d="M2.188-12.671v-2.641H3.579v.433c0,.236,0,.53,0,.883s0,.59,0,.707a7.437,7.437,0,0,0,.026.755.871.871,0,0,0,.093.331.609.609,0,0,0,.225.212.666.666,0,0,0,.314.071.8.8,0,0,0,.68-.331,1.516,1.516,0,0,0,.247-.923v-2.138H6.538v4.328H5.155v-.627a2.175,2.175,0,0,1-.663.561,1.7,1.7,0,0,1-.773.177,1.414,1.414,0,0,1-1.139-.459,2,2,0,0,1-.393-1.338Z" transform="translate(-2.188 15.313)"/>
      </g>
      <g id="Groupe_101" data-name="Groupe 101" transform="translate(59.541 185.516)">
        <path id="Tracé_348" data-name="Tracé 348" d="M6.71-13.89v2.637H5.319v-2.018a7.4,7.4,0,0,0-.027-.773.831.831,0,0,0-.088-.314.564.564,0,0,0-.221-.208.649.649,0,0,0-.314-.075.8.8,0,0,0-.68.336,1.511,1.511,0,0,0-.247.923v2.129H2.359v-4.328H3.742v.632a2.209,2.209,0,0,1,.663-.557,1.683,1.683,0,0,1,.777-.181,1.4,1.4,0,0,1,1.139.464A2.019,2.019,0,0,1,6.71-13.89Z" transform="translate(-2.359 15.687)"/>
      </g>
      <g id="Groupe_102" data-name="Groupe 102" transform="translate(67.992 184.182)">
        <path id="Tracé_349" data-name="Tracé 349" d="M2.578-20.406H5.047a2.568,2.568,0,0,1,1.687.49,1.7,1.7,0,0,1,.592,1.391,1.711,1.711,0,0,1-.592,1.4,2.568,2.568,0,0,1-1.687.49H4.062v2H2.578Zm1.484,1.078v1.612h.826a.961.961,0,0,0,.667-.212.756.756,0,0,0,.238-.6.75.75,0,0,0-.238-.6.977.977,0,0,0-.667-.208Z" transform="translate(-2.578 20.406)"/>
      </g>
      <g id="Groupe_103" data-name="Groupe 103" transform="translate(73.731 185.516)">
        <path id="Tracé_350" data-name="Tracé 350" d="M5.574-14.4a1.912,1.912,0,0,0-.367-.124,1.511,1.511,0,0,0-.358-.044,1.008,1.008,0,0,0-.821.345,1.471,1.471,0,0,0-.287.976v2H2.359v-4.328H3.741v.711a1.757,1.757,0,0,1,.609-.618,1.648,1.648,0,0,1,.83-.2,1.472,1.472,0,0,1,.15.009c.055,0,.135.011.238.022Z" transform="translate(-2.359 15.687)"/>
      </g>
      <g id="Groupe_104" data-name="Groupe 104" transform="translate(77.306 185.516)">
        <path id="Tracé_351" data-name="Tracé 351" d="M3.588-14.7a.816.816,0,0,0-.7.331,1.593,1.593,0,0,0-.243.954,1.593,1.593,0,0,0,.243.954.818.818,0,0,0,.7.327.8.8,0,0,0,.689-.327,1.6,1.6,0,0,0,.243-.954,1.6,1.6,0,0,0-.243-.954A.8.8,0,0,0,3.588-14.7Zm0-.989a2.412,2.412,0,0,1,1.745.605,2.206,2.206,0,0,1,.627,1.669,2.213,2.213,0,0,1-.627,1.669,2.419,2.419,0,0,1-1.745.6,2.438,2.438,0,0,1-1.753-.6A2.2,2.2,0,0,1,1.2-13.413a2.192,2.192,0,0,1,.632-1.669A2.43,2.43,0,0,1,3.588-15.688Z" transform="translate(-1.203 15.688)"/>
      </g>
      <g id="Groupe_105" data-name="Groupe 105" transform="translate(82.139 183.935)">
        <path id="Tracé_352" data-name="Tracé 352" d="M-.006-19.594H1.377v4.249a1.909,1.909,0,0,1-.42,1.329,1.55,1.55,0,0,1-1.21.459H-.937v-.91h.243a.675.675,0,0,0,.539-.177,1.155,1.155,0,0,0,.15-.7Zm0-1.687H1.377v1.131H-.006Z" transform="translate(0.937 21.281)"/>
      </g>
      <g id="Groupe_106" data-name="Groupe 106" transform="translate(85.457 185.516)">
        <path id="Tracé_353" data-name="Tracé 353" d="M5.85-13.431v.4H2.612a1.029,1.029,0,0,0,.353.729,1.306,1.306,0,0,0,.844.243A3.256,3.256,0,0,0,4.7-12.19a4.723,4.723,0,0,0,.941-.393v1.064a5.831,5.831,0,0,1-.981.278,5.09,5.09,0,0,1-.981.1,2.612,2.612,0,0,1-1.829-.6A2.158,2.158,0,0,1,1.2-13.413a2.18,2.18,0,0,1,.64-1.665A2.444,2.444,0,0,1,3.6-15.688a2.2,2.2,0,0,1,1.634.618,2.219,2.219,0,0,1,.614,1.639ZM4.428-13.89a.876.876,0,0,0-.23-.632.792.792,0,0,0-.6-.243.943.943,0,0,0-.654.225,1.036,1.036,0,0,0-.314.649Z" transform="translate(-1.203 15.688)"/>
      </g>
      <g id="Groupe_107" data-name="Groupe 107" transform="translate(90.826 185.516)">
        <path id="Tracé_354" data-name="Tracé 354" d="M5.024-15.444v1.126a2.152,2.152,0,0,0-.565-.287,1.874,1.874,0,0,0-.587-.093,1.2,1.2,0,0,0-.905.34,1.308,1.308,0,0,0-.322.945,1.315,1.315,0,0,0,.322.945,1.2,1.2,0,0,0,.905.336,2.016,2.016,0,0,0,.614-.093,1.812,1.812,0,0,0,.539-.287v1.131a3.741,3.741,0,0,1-.658.177,3.686,3.686,0,0,1-.671.062,2.627,2.627,0,0,1-1.833-.6A2.142,2.142,0,0,1,1.2-13.413a2.15,2.15,0,0,1,.658-1.674,2.632,2.632,0,0,1,1.833-.6,3.686,3.686,0,0,1,.671.062,3.7,3.7,0,0,1,.658.181Z" transform="translate(-1.203 15.687)"/>
      </g>
      <g id="Groupe_108" data-name="Groupe 108" transform="translate(95.282 184.395)">
        <path id="Tracé_355" data-name="Tracé 355" d="M2.446-19.656v1.228H3.873v.989H2.446V-15.6a.534.534,0,0,0,.119.406.744.744,0,0,0,.473.106h.711v.989H2.566A1.624,1.624,0,0,1,1.4-14.44,1.616,1.616,0,0,1,1.06-15.6v-1.837H.375v-.989H1.06v-1.228Z" transform="translate(-0.375 19.656)"/>
      </g>
    </g>
    <rect id="Rectangle_1474" data-name="Rectangle 1474" width="121" height="28" transform="translate(30 1189.841)" fill="#89fc00"/>
  </g>
</svg>
