<svg xmlns="http://www.w3.org/2000/svg" width="209.001" height="247.92" viewBox="0 0 209.001 247.92">
  <g id="france-flag" transform="translate(-227.507 -1019.08)">
    <g id="noun-france-3842710" transform="translate(227.507 1019.08)">
      <path id="Tracé_356" data-name="Tracé 356" d="M201.778,127.092A15.777,15.777,0,0,1,217.467,111.4a15.08,15.08,0,0,1,11.176,4.943,25.269,25.269,0,0,0,.859-4.3c.645-3.868,1.289-8.167,3.653-12.679,1.075-2.15,2.364-4.943.859-7.523-1.505-2.794-5.373-2.794-9.671-3.009a28.867,28.867,0,0,1-7.523-.859c-7.737-2.15-27.294-15.043-32.882-21.706-.43-.645-1.075-1.289-1.505-1.934-1.934-2.578-4.3-5.8-7.951-7.307-4.514-1.934-9.887-2.15-12.679-2.15a4,4,0,0,0-4.084,3.653c-.214,3.009-1.505,12.679-7.307,14.829a24.5,24.5,0,0,0-8.382,5.373c-2.15,1.934-3.439,3.009-6.018,2.794-1.075-.214-2.579-1.505-3.868-2.794a18.728,18.728,0,0,0-3.223-2.794c-1.934-1.075-4.514-1.075-7.737.214a4.063,4.063,0,0,0-2.578,4.514,99.863,99.863,0,0,0,2.578,11.6c-4.3.214-9.457-.43-12.465-3.653-3.653-4.084-13.11-1.719-20.2,1.075a5.213,5.213,0,0,0-3.439,5.587c.43,6.018,2.794,10.1,6.448,11.39,17.838,6.232,27.294,30.948,27.294,30.948,4.084,14.613-4.084,39.759-6.662,47.925a6.119,6.119,0,0,0,2.364,6.878c8.812,6.448,19.557,7.951,26.864,8.167a10.075,10.075,0,0,1,6.662,2.364c4.514,4.084,9.457,5.158,16.118,5.158a30.334,30.334,0,0,0,4.3-.214,4.488,4.488,0,0,0,3.439-1.719,4.637,4.637,0,0,0,1.075-3.653c-.645-4.943.645-8.382,3.439-10.1,5.587-3.868,16.977-1.719,24.5,2.364a9.381,9.381,0,0,1,1.505.859V127.095Z" transform="translate(-79.482 -54.883)"/>
      <path id="Tracé_357" data-name="Tracé 357" d="M472.414,236.869c-14.185-4.3-24.5-1.719-34.6,1.075-9.24,2.364-17.838,4.728-29.228,1.505V236.01a4.728,4.728,0,1,0-9.456,0V325.2h-3.009a8.62,8.62,0,0,0-8.6,8.6,3.073,3.073,0,0,0,3.009,3.009h26.434a3.073,3.073,0,0,0,3.009-3.009,8.62,8.62,0,0,0-8.6-8.6h-3.009v-35.89a43.356,43.356,0,0,0,11.176,1.505c7.307,0,13.754-1.72,19.986-3.223,9.457-2.364,18.482-4.728,30.3-1.075a3.28,3.28,0,0,0,3.439-.645,3.615,3.615,0,0,0,1.505-3.223V240.74a3.308,3.308,0,0,0-2.364-3.869Zm-23.425,40.618a108.773,108.773,0,0,0-11.39,2.578,88.039,88.039,0,0,1-9.671,2.15V248.045c3.868-.645,7.523-1.505,11.6-2.578,2.794-.645,6.018-1.505,9.456-2.15Z" transform="translate(-265.872 -163.585)"/>
      <g id="Groupe_109" data-name="Groupe 109" transform="translate(0.33 218.111)">
        <path id="Tracé_358" data-name="Tracé 358" d="M8.059-13.238a5.106,5.106,0,0,1-1.163.432,5.23,5.23,0,0,1-1.259.15,4.3,4.3,0,0,1-3.1-1.091,3.914,3.914,0,0,1-1.145-2.968,3.9,3.9,0,0,1,1.145-2.968,4.292,4.292,0,0,1,3.1-1.1,5.23,5.23,0,0,1,1.259.15,5.1,5.1,0,0,1,1.163.432v1.619a4.609,4.609,0,0,0-1.109-.558,3.658,3.658,0,0,0-1.151-.18,2.153,2.153,0,0,0-1.7.7,2.756,2.756,0,0,0-.618,1.907A2.766,2.766,0,0,0,4.1-14.809a2.159,2.159,0,0,0,1.7.69,3.744,3.744,0,0,0,1.151-.174,4.48,4.48,0,0,0,1.109-.564Z" transform="translate(-1.391 20.781)"/>
      </g>
      <g id="Groupe_110" data-name="Groupe 110" transform="translate(8.588 220.066)">
        <path id="Tracé_359" data-name="Tracé 359" d="M6.724-13.943a2.6,2.6,0,0,0-.5-.168,2.052,2.052,0,0,0-.486-.06,1.369,1.369,0,0,0-1.115.468,2,2,0,0,0-.39,1.325v2.71H2.359v-5.876H4.236v.965a2.386,2.386,0,0,1,.827-.84,2.237,2.237,0,0,1,1.127-.27,2,2,0,0,1,.2.012c.075,0,.183.015.324.03Z" transform="translate(-2.359 15.687)"/>
      </g>
      <g id="Groupe_111" data-name="Groupe 111" transform="translate(13.444 220.066)">
        <path id="Tracé_360" data-name="Tracé 360" d="M7.512-12.623v.54h-4.4a1.4,1.4,0,0,0,.48.989,1.772,1.772,0,0,0,1.145.33,4.421,4.421,0,0,0,1.211-.174,6.412,6.412,0,0,0,1.277-.534v1.445A7.917,7.917,0,0,1,5.9-9.649a6.91,6.91,0,0,1-1.331.132,3.546,3.546,0,0,1-2.483-.81A2.93,2.93,0,0,1,1.2-12.6a2.96,2.96,0,0,1,.869-2.261,3.318,3.318,0,0,1,2.387-.827,2.99,2.99,0,0,1,2.219.84,3.013,3.013,0,0,1,.834,2.225Zm-1.931-.624a1.189,1.189,0,0,0-.312-.858,1.075,1.075,0,0,0-.816-.33,1.28,1.28,0,0,0-.887.306,1.406,1.406,0,0,0-.426.881Z" transform="translate(-1.203 15.688)"/>
      </g>
      <g id="Groupe_112" data-name="Groupe 112" transform="translate(20.731 220.066)">
        <path id="Tracé_361" data-name="Tracé 361" d="M4.279-12.312a1.618,1.618,0,0,0-.887.2.662.662,0,0,0-.294.588.7.7,0,0,0,.24.564,1,1,0,0,0,.66.2,1.185,1.185,0,0,0,.893-.378,1.329,1.329,0,0,0,.366-.953v-.216Zm2.866-.708v3.352H5.257v-.869a2.426,2.426,0,0,1-.852.78,2.543,2.543,0,0,1-1.151.24,2.088,2.088,0,0,1-1.481-.528A1.807,1.807,0,0,1,1.2-11.43a1.7,1.7,0,0,1,.708-1.511,4.041,4.041,0,0,1,2.237-.486H5.257v-.15a.7.7,0,0,0-.354-.648,2.229,2.229,0,0,0-1.1-.21,5.049,5.049,0,0,0-1.127.12,3.889,3.889,0,0,0-.959.36v-1.433a11.427,11.427,0,0,1,1.205-.222,9.855,9.855,0,0,1,1.223-.078,3.391,3.391,0,0,1,2.291.63,2.6,2.6,0,0,1,.708,2.039Z" transform="translate(-1.203 15.688)"/>
      </g>
      <g id="Groupe_113" data-name="Groupe 113" transform="translate(27.664 218.543)">
        <path id="Tracé_362" data-name="Tracé 362" d="M3.187-19.656v1.667H5.124v1.343H3.187v2.495a.725.725,0,0,0,.162.552,1.01,1.01,0,0,0,.642.144h.965v1.343H3.349a2.205,2.205,0,0,1-1.583-.462A2.193,2.193,0,0,1,1.3-14.151v-2.495H.375v-1.343H1.3v-1.667Z" transform="translate(-0.375 19.656)"/>
      </g>
      <g id="Groupe_114" data-name="Groupe 114" transform="translate(33.12 220.066)">
        <path id="Tracé_363" data-name="Tracé 363" d="M7.512-12.623v.54h-4.4a1.4,1.4,0,0,0,.48.989,1.772,1.772,0,0,0,1.145.33,4.421,4.421,0,0,0,1.211-.174,6.412,6.412,0,0,0,1.277-.534v1.445A7.917,7.917,0,0,1,5.9-9.649a6.91,6.91,0,0,1-1.331.132,3.546,3.546,0,0,1-2.483-.81A2.93,2.93,0,0,1,1.2-12.6a2.96,2.96,0,0,1,.869-2.261,3.318,3.318,0,0,1,2.387-.827,2.99,2.99,0,0,1,2.219.84,3.013,3.013,0,0,1,.834,2.225Zm-1.931-.624a1.189,1.189,0,0,0-.312-.858,1.075,1.075,0,0,0-.816-.33,1.28,1.28,0,0,0-.887.306,1.406,1.406,0,0,0-.426.881Z" transform="translate(-1.203 15.688)"/>
      </g>
      <g id="Groupe_115" data-name="Groupe 115" transform="translate(40.431 217.919)">
        <path id="Tracé_364" data-name="Tracé 364" d="M5.679-18.133v-3.148H7.568v8.167H5.679v-.852a2.473,2.473,0,0,1-.852.762,2.362,2.362,0,0,1-1.085.24,2.185,2.185,0,0,1-1.781-.863,3.419,3.419,0,0,1-.7-2.219,3.43,3.43,0,0,1,.7-2.225,2.185,2.185,0,0,1,1.781-.863,2.292,2.292,0,0,1,1.079.246,2.6,2.6,0,0,1,.857.756ZM4.444-14.325a1.065,1.065,0,0,0,.917-.438,2.188,2.188,0,0,0,.318-1.283,2.164,2.164,0,0,0-.318-1.277,1.063,1.063,0,0,0-.917-.444,1.059,1.059,0,0,0-.917.444,2.153,2.153,0,0,0-.318,1.277,2.177,2.177,0,0,0,.318,1.283A1.062,1.062,0,0,0,4.444-14.325Z" transform="translate(-1.266 21.281)"/>
      </g>
      <g id="Groupe_116" data-name="Groupe 116" transform="translate(52.284 217.919)">
        <path id="Tracé_365" data-name="Tracé 365" d="M5.484-14.325a1.071,1.071,0,0,0,.923-.438,2.188,2.188,0,0,0,.318-1.283,2.164,2.164,0,0,0-.318-1.277,1.068,1.068,0,0,0-.923-.444,1.081,1.081,0,0,0-.929.444,2.172,2.172,0,0,0-.318,1.277,2.166,2.166,0,0,0,.318,1.277,1.077,1.077,0,0,0,.929.444ZM4.236-18.133a2.661,2.661,0,0,1,.857-.756,2.325,2.325,0,0,1,1.085-.246,2.194,2.194,0,0,1,1.787.863,3.439,3.439,0,0,1,.7,2.225,3.427,3.427,0,0,1-.7,2.219,2.194,2.194,0,0,1-1.787.863,2.38,2.38,0,0,1-1.085-.24,2.6,2.6,0,0,1-.857-.762v.852H2.359v-8.167H4.236Z" transform="translate(-2.359 21.281)"/>
      </g>
      <g id="Groupe_117" data-name="Groupe 117" transform="translate(59.203 220.21)">
        <path id="Tracé_366" data-name="Tracé 366" d="M.344-15.312H2.221L3.8-11.324l1.343-3.988H7.024L4.553-8.878A3.139,3.139,0,0,1,3.684-7.51a2.04,2.04,0,0,1-1.307.4H1.285V-8.35h.588a1.214,1.214,0,0,0,.7-.156.981.981,0,0,0,.342-.54l.054-.162Z" transform="translate(-0.344 15.312)"/>
      </g>
      <g id="Groupe_118" data-name="Groupe 118" transform="translate(69.87 218.255)">
        <path id="Tracé_367" data-name="Tracé 367" d="M5.825-14H2.671l-.5,1.427H.141l2.9-7.831h2.4l2.9,7.831H6.323Zm-2.65-1.451H5.315L4.248-18.571Z" transform="translate(-0.141 20.406)"/>
      </g>
      <g id="Groupe_119" data-name="Groupe 119" transform="translate(78.618 217.919)">
        <path id="Tracé_368" data-name="Tracé 368" d="M5.679-18.133v-3.148H7.568v8.167H5.679v-.852a2.473,2.473,0,0,1-.852.762,2.362,2.362,0,0,1-1.085.24,2.185,2.185,0,0,1-1.781-.863,3.419,3.419,0,0,1-.7-2.219,3.43,3.43,0,0,1,.7-2.225,2.185,2.185,0,0,1,1.781-.863,2.292,2.292,0,0,1,1.079.246,2.6,2.6,0,0,1,.857.756ZM4.444-14.325a1.065,1.065,0,0,0,.917-.438,2.188,2.188,0,0,0,.318-1.283,2.164,2.164,0,0,0-.318-1.277,1.063,1.063,0,0,0-.917-.444,1.059,1.059,0,0,0-.917.444,2.153,2.153,0,0,0-.318,1.277,2.177,2.177,0,0,0,.318,1.283A1.062,1.062,0,0,0,4.444-14.325Z" transform="translate(-1.266 21.281)"/>
      </g>
      <g id="Groupe_120" data-name="Groupe 120" transform="translate(86.729 220.066)">
        <path id="Tracé_369" data-name="Tracé 369" d="M6.724-13.943a2.6,2.6,0,0,0-.5-.168,2.052,2.052,0,0,0-.486-.06,1.369,1.369,0,0,0-1.115.468,2,2,0,0,0-.39,1.325v2.71H2.359v-5.876H4.236v.965a2.386,2.386,0,0,1,.827-.84,2.237,2.237,0,0,1,1.127-.27,2,2,0,0,1,.2.012c.075,0,.183.015.324.03Z" transform="translate(-2.359 15.687)"/>
      </g>
      <g id="Groupe_121" data-name="Groupe 121" transform="translate(92.029 217.919)">
        <path id="Tracé_370" data-name="Tracé 370" d="M2.359-18.99H4.236v5.876H2.359Zm0-2.291H4.236v1.535H2.359Z" transform="translate(-2.359 21.281)"/>
      </g>
      <g id="Groupe_122" data-name="Groupe 122" transform="translate(95.268 220.066)">
        <path id="Tracé_371" data-name="Tracé 371" d="M7.512-12.623v.54h-4.4a1.4,1.4,0,0,0,.48.989,1.772,1.772,0,0,0,1.145.33,4.421,4.421,0,0,0,1.211-.174,6.412,6.412,0,0,0,1.277-.534v1.445A7.917,7.917,0,0,1,5.9-9.649a6.91,6.91,0,0,1-1.331.132,3.546,3.546,0,0,1-2.483-.81A2.93,2.93,0,0,1,1.2-12.6a2.96,2.96,0,0,1,.869-2.261,3.318,3.318,0,0,1,2.387-.827,2.99,2.99,0,0,1,2.219.84,3.013,3.013,0,0,1,.834,2.225Zm-1.931-.624a1.189,1.189,0,0,0-.312-.858,1.075,1.075,0,0,0-.816-.33,1.28,1.28,0,0,0-.887.306,1.406,1.406,0,0,0-.426.881Z" transform="translate(-1.203 15.688)"/>
      </g>
      <g id="Groupe_123" data-name="Groupe 123" transform="translate(103.001 220.066)">
        <path id="Tracé_372" data-name="Tracé 372" d="M8.266-13.247v3.58H6.377v-2.74a10.049,10.049,0,0,0-.036-1.049,1.128,1.128,0,0,0-.12-.426.765.765,0,0,0-.3-.282.881.881,0,0,0-.426-.1,1.085,1.085,0,0,0-.923.456,2.051,2.051,0,0,0-.336,1.253v2.89H2.359v-5.876H4.236v.858a3,3,0,0,1,.9-.756,2.284,2.284,0,0,1,1.055-.246,1.905,1.905,0,0,1,1.547.63,2.741,2.741,0,0,1,.528,1.811Z" transform="translate(-2.359 15.687)"/>
      </g>
      <g id="Groupe_124" data-name="Groupe 124" transform="translate(114.019 218.111)">
        <path id="Tracé_373" data-name="Tracé 373" d="M8.059-13.238a5.106,5.106,0,0,1-1.163.432,5.23,5.23,0,0,1-1.259.15,4.3,4.3,0,0,1-3.1-1.091,3.914,3.914,0,0,1-1.145-2.968,3.9,3.9,0,0,1,1.145-2.968,4.292,4.292,0,0,1,3.1-1.1,5.23,5.23,0,0,1,1.259.15,5.1,5.1,0,0,1,1.163.432v1.619a4.609,4.609,0,0,0-1.109-.558,3.658,3.658,0,0,0-1.151-.18,2.153,2.153,0,0,0-1.7.7,2.756,2.756,0,0,0-.618,1.907A2.766,2.766,0,0,0,4.1-14.809a2.159,2.159,0,0,0,1.7.69,3.744,3.744,0,0,0,1.151-.174,4.48,4.48,0,0,0,1.109-.564Z" transform="translate(-1.391 20.781)"/>
      </g>
      <g id="Groupe_125" data-name="Groupe 125" transform="translate(121.832 220.066)">
        <path id="Tracé_374" data-name="Tracé 374" d="M4.441-14.345a1.107,1.107,0,0,0-.953.45,2.163,2.163,0,0,0-.33,1.3,2.163,2.163,0,0,0,.33,1.3,1.11,1.11,0,0,0,.953.444,1.084,1.084,0,0,0,.935-.444,2.174,2.174,0,0,0,.33-1.3,2.174,2.174,0,0,0-.33-1.3A1.082,1.082,0,0,0,4.441-14.345Zm0-1.343a3.275,3.275,0,0,1,2.369.822A3,3,0,0,1,7.661-12.6a3,3,0,0,1-.852,2.267,3.285,3.285,0,0,1-2.369.816,3.31,3.31,0,0,1-2.381-.816A2.985,2.985,0,0,1,1.2-12.6a2.976,2.976,0,0,1,.857-2.267A3.3,3.3,0,0,1,4.441-15.688Z" transform="translate(-1.203 15.688)"/>
      </g>
      <g id="Groupe_126" data-name="Groupe 126" transform="translate(129.24 220.078)">
        <path id="Tracé_375" data-name="Tracé 375" d="M4.444-14.3a1.059,1.059,0,0,0-.917.444,2.153,2.153,0,0,0-.318,1.277A2.177,2.177,0,0,0,3.526-11.3a1.062,1.062,0,0,0,.917.438,1.065,1.065,0,0,0,.917-.438,2.188,2.188,0,0,0,.318-1.283,2.164,2.164,0,0,0-.318-1.277A1.063,1.063,0,0,0,4.444-14.3Zm1.235,3.8a2.473,2.473,0,0,1-.852.762,2.362,2.362,0,0,1-1.085.24,2.185,2.185,0,0,1-1.781-.863,3.419,3.419,0,0,1-.7-2.219,3.407,3.407,0,0,1,.7-2.219,2.192,2.192,0,0,1,1.781-.858,2.308,2.308,0,0,1,1.085.246,2.514,2.514,0,0,1,.852.756v-.869H7.568v8.113H5.679Z" transform="translate(-1.266 15.656)"/>
      </g>
      <g id="Groupe_127" data-name="Groupe 127" transform="translate(137.285 220.21)">
        <path id="Tracé_376" data-name="Tracé 376" d="M2.188-11.727v-3.586H4.076v.588c0,.321,0,.72-.006,1.2s-.006.8-.006.959A10.1,10.1,0,0,0,4.1-11.541a1.182,1.182,0,0,0,.126.45.827.827,0,0,0,.306.288.9.9,0,0,0,.426.1,1.091,1.091,0,0,0,.923-.45,2.059,2.059,0,0,0,.336-1.253v-2.9H8.094v5.876H6.217v-.852a2.953,2.953,0,0,1-.9.762,2.3,2.3,0,0,1-1.049.24A1.919,1.919,0,0,1,2.721-9.91a2.715,2.715,0,0,1-.534-1.817Z" transform="translate(-2.188 15.313)"/>
      </g>
      <g id="Groupe_128" data-name="Groupe 128" transform="translate(144.558 220.066)">
        <path id="Tracé_377" data-name="Tracé 377" d="M7.512-12.623v.54h-4.4a1.4,1.4,0,0,0,.48.989,1.772,1.772,0,0,0,1.145.33,4.421,4.421,0,0,0,1.211-.174,6.412,6.412,0,0,0,1.277-.534v1.445A7.917,7.917,0,0,1,5.9-9.649a6.91,6.91,0,0,1-1.331.132,3.546,3.546,0,0,1-2.483-.81A2.93,2.93,0,0,1,1.2-12.6a2.96,2.96,0,0,1,.869-2.261,3.318,3.318,0,0,1,2.387-.827,2.99,2.99,0,0,1,2.219.84,3.013,3.013,0,0,1,.834,2.225Zm-1.931-.624a1.189,1.189,0,0,0-.312-.858,1.075,1.075,0,0,0-.816-.33,1.28,1.28,0,0,0-.887.306,1.406,1.406,0,0,0-.426.881Z" transform="translate(-1.203 15.688)"/>
      </g>
      <g id="Groupe_129" data-name="Groupe 129" transform="translate(151.527 218.543)">
        <path id="Tracé_378" data-name="Tracé 378" d="M3.187-19.656v1.667H5.124v1.343H3.187v2.495a.725.725,0,0,0,.162.552,1.01,1.01,0,0,0,.642.144h.965v1.343H3.349a2.205,2.205,0,0,1-1.583-.462A2.193,2.193,0,0,1,1.3-14.151v-2.495H.375v-1.343H1.3v-1.667Z" transform="translate(-0.375 19.656)"/>
      </g>
      <g id="Groupe_130" data-name="Groupe 130" transform="translate(0 228.665)">
        <path id="Tracé_379" data-name="Tracé 379" d="M5.095-21.281v1.235H4.057A.842.842,0,0,0,3.5-19.9a.662.662,0,0,0-.156.5v.408H4.951v1.343H3.344v4.533H1.467v-4.533H.531V-18.99h.935V-19.4A1.779,1.779,0,0,1,2-20.819a2.5,2.5,0,0,1,1.661-.462Z" transform="translate(-0.531 21.281)"/>
      </g>
      <g id="Groupe_131" data-name="Groupe 131" transform="translate(5.377 230.812)">
        <path id="Tracé_380" data-name="Tracé 380" d="M6.724-13.943a2.6,2.6,0,0,0-.5-.168,2.052,2.052,0,0,0-.486-.06,1.369,1.369,0,0,0-1.115.468,2,2,0,0,0-.39,1.325v2.71H2.359v-5.876H4.236v.965a2.386,2.386,0,0,1,.827-.84,2.237,2.237,0,0,1,1.127-.27,2,2,0,0,1,.2.012c.075,0,.183.015.324.03Z" transform="translate(-2.359 15.687)"/>
      </g>
      <g id="Groupe_132" data-name="Groupe 132" transform="translate(10.233 230.811)">
        <path id="Tracé_381" data-name="Tracé 381" d="M4.441-14.345a1.107,1.107,0,0,0-.953.45,2.163,2.163,0,0,0-.33,1.3,2.163,2.163,0,0,0,.33,1.3,1.11,1.11,0,0,0,.953.444,1.084,1.084,0,0,0,.935-.444,2.174,2.174,0,0,0,.33-1.3,2.174,2.174,0,0,0-.33-1.3A1.082,1.082,0,0,0,4.441-14.345Zm0-1.343a3.275,3.275,0,0,1,2.369.822A3,3,0,0,1,7.661-12.6a3,3,0,0,1-.852,2.267,3.285,3.285,0,0,1-2.369.816,3.31,3.31,0,0,1-2.381-.816A2.985,2.985,0,0,1,1.2-12.6a2.976,2.976,0,0,1,.857-2.267A3.3,3.3,0,0,1,4.441-15.688Z" transform="translate(-1.203 15.688)"/>
      </g>
      <g id="Groupe_133" data-name="Groupe 133" transform="translate(18.046 230.811)">
        <path id="Tracé_382" data-name="Tracé 382" d="M7.785-14.567A2.546,2.546,0,0,1,8.63-15.4a2.093,2.093,0,0,1,1.079-.288,1.9,1.9,0,0,1,1.541.63,2.717,2.717,0,0,1,.534,1.811v3.58H9.9v-3.2c0-.051.006-.123.006-.216a1.67,1.67,0,0,0-.186-.9.646.646,0,0,0-.588-.282.936.936,0,0,0-.827.444A2.3,2.3,0,0,0,8-12.552v2.884H6.112v-3.064a2.92,2.92,0,0,0-.168-1.253.641.641,0,0,0-.6-.282.942.942,0,0,0-.834.444,2.266,2.266,0,0,0-.294,1.265v2.89H2.328v-5.876H4.217v.858a2.442,2.442,0,0,1,.792-.75A1.99,1.99,0,0,1,6-15.688a2,2,0,0,1,1.079.294,1.85,1.85,0,0,1,.708.827Z" transform="translate(-2.328 15.688)"/>
      </g>
      <g id="Groupe_134" data-name="Groupe 134" transform="translate(32.235 229.289)">
        <path id="Tracé_383" data-name="Tracé 383" d="M3.187-19.656v1.667H5.124v1.343H3.187v2.495a.725.725,0,0,0,.162.552,1.01,1.01,0,0,0,.642.144h.965v1.343H3.349a2.205,2.205,0,0,1-1.583-.462A2.193,2.193,0,0,1,1.3-14.151v-2.495H.375v-1.343H1.3v-1.667Z" transform="translate(-0.375 19.656)"/>
      </g>
      <g id="Groupe_135" data-name="Groupe 135" transform="translate(38.133 228.665)">
        <path id="Tracé_384" data-name="Tracé 384" d="M8.266-16.694v3.58H6.377v-2.728A10.206,10.206,0,0,0,6.341-16.9a1.128,1.128,0,0,0-.12-.426.765.765,0,0,0-.3-.282.881.881,0,0,0-.426-.1,1.085,1.085,0,0,0-.923.456A2.051,2.051,0,0,0,4.236-16v2.89H2.359v-8.167H4.236v3.148a3,3,0,0,1,.9-.756,2.284,2.284,0,0,1,1.055-.246,1.905,1.905,0,0,1,1.547.63,2.741,2.741,0,0,1,.528,1.811Z" transform="translate(-2.359 21.281)"/>
      </g>
      <g id="Groupe_136" data-name="Groupe 136" transform="translate(45.339 230.812)">
        <path id="Tracé_385" data-name="Tracé 385" d="M7.512-12.623v.54h-4.4a1.4,1.4,0,0,0,.48.989,1.772,1.772,0,0,0,1.145.33,4.421,4.421,0,0,0,1.211-.174,6.412,6.412,0,0,0,1.277-.534v1.445A7.917,7.917,0,0,1,5.9-9.649a6.91,6.91,0,0,1-1.331.132,3.546,3.546,0,0,1-2.483-.81A2.93,2.93,0,0,1,1.2-12.6a2.96,2.96,0,0,1,.869-2.261,3.318,3.318,0,0,1,2.387-.827,2.99,2.99,0,0,1,2.219.84,3.013,3.013,0,0,1,.834,2.225Zm-1.931-.624a1.189,1.189,0,0,0-.312-.858,1.075,1.075,0,0,0-.816-.33,1.28,1.28,0,0,0-.887.306,1.406,1.406,0,0,0-.426.881Z" transform="translate(-1.203 15.688)"/>
      </g>
      <g id="Groupe_137" data-name="Groupe 137" transform="translate(56.896 229.001)">
        <path id="Tracé_386" data-name="Tracé 386" d="M2.578-20.406H4.833l2.848,5.373v-5.373H9.594v7.831H7.339L4.491-17.948v5.373H2.578Z" transform="translate(-2.578 20.406)"/>
      </g>
      <g id="Groupe_138" data-name="Groupe 138" transform="translate(65.361 230.811)">
        <path id="Tracé_387" data-name="Tracé 387" d="M4.441-14.345a1.107,1.107,0,0,0-.953.45,2.163,2.163,0,0,0-.33,1.3,2.163,2.163,0,0,0,.33,1.3,1.11,1.11,0,0,0,.953.444,1.084,1.084,0,0,0,.935-.444,2.174,2.174,0,0,0,.33-1.3,2.174,2.174,0,0,0-.33-1.3A1.082,1.082,0,0,0,4.441-14.345Zm0-1.343a3.275,3.275,0,0,1,2.369.822A3,3,0,0,1,7.661-12.6a3,3,0,0,1-.852,2.267,3.285,3.285,0,0,1-2.369.816,3.31,3.31,0,0,1-2.381-.816A2.985,2.985,0,0,1,1.2-12.6a2.976,2.976,0,0,1,.857-2.267A3.3,3.3,0,0,1,4.441-15.688Z" transform="translate(-1.203 15.688)"/>
      </g>
      <g id="Groupe_139" data-name="Groupe 139" transform="translate(73.122 230.955)">
        <path id="Tracé_388" data-name="Tracé 388" d="M2.188-11.727v-3.586H4.076v.588c0,.321,0,.72-.006,1.2s-.006.8-.006.959A10.1,10.1,0,0,0,4.1-11.541a1.182,1.182,0,0,0,.126.45.827.827,0,0,0,.306.288.9.9,0,0,0,.426.1,1.091,1.091,0,0,0,.923-.45,2.059,2.059,0,0,0,.336-1.253v-2.9H8.094v5.876H6.217v-.852a2.953,2.953,0,0,1-.9.762,2.3,2.3,0,0,1-1.049.24A1.919,1.919,0,0,1,2.721-9.91a2.715,2.715,0,0,1-.534-1.817Z" transform="translate(-2.188 15.313)"/>
      </g>
      <g id="Groupe_140" data-name="Groupe 140" transform="translate(80.838 230.812)">
        <path id="Tracé_389" data-name="Tracé 389" d="M8.266-13.247v3.58H6.377v-2.74a10.049,10.049,0,0,0-.036-1.049,1.128,1.128,0,0,0-.12-.426.765.765,0,0,0-.3-.282.881.881,0,0,0-.426-.1,1.085,1.085,0,0,0-.923.456,2.051,2.051,0,0,0-.336,1.253v2.89H2.359v-5.876H4.236v.858a3,3,0,0,1,.9-.756,2.284,2.284,0,0,1,1.055-.246,1.905,1.905,0,0,1,1.547.63,2.741,2.741,0,0,1,.528,1.811Z" transform="translate(-2.359 15.687)"/>
      </g>
      <g id="Groupe_141" data-name="Groupe 141" transform="translate(92.312 229.001)">
        <path id="Tracé_390" data-name="Tracé 390" d="M2.578-20.406H5.93a3.487,3.487,0,0,1,2.291.666,2.308,2.308,0,0,1,.8,1.889,2.323,2.323,0,0,1-.8,1.895,3.487,3.487,0,0,1-2.291.666H4.593v2.716H2.578Zm2.015,1.463v2.189H5.714a1.305,1.305,0,0,0,.905-.288,1.027,1.027,0,0,0,.324-.81,1.018,1.018,0,0,0-.324-.81,1.326,1.326,0,0,0-.905-.282Z" transform="translate(-2.578 20.406)"/>
      </g>
      <g id="Groupe_142" data-name="Groupe 142" transform="translate(100.104 230.812)">
        <path id="Tracé_391" data-name="Tracé 391" d="M6.724-13.943a2.6,2.6,0,0,0-.5-.168,2.052,2.052,0,0,0-.486-.06,1.369,1.369,0,0,0-1.115.468,2,2,0,0,0-.39,1.325v2.71H2.359v-5.876H4.236v.965a2.386,2.386,0,0,1,.827-.84,2.237,2.237,0,0,1,1.127-.27,2,2,0,0,1,.2.012c.075,0,.183.015.324.03Z" transform="translate(-2.359 15.687)"/>
      </g>
      <g id="Groupe_143" data-name="Groupe 143" transform="translate(104.958 230.811)">
        <path id="Tracé_392" data-name="Tracé 392" d="M4.441-14.345a1.107,1.107,0,0,0-.953.45,2.163,2.163,0,0,0-.33,1.3,2.163,2.163,0,0,0,.33,1.3,1.11,1.11,0,0,0,.953.444,1.084,1.084,0,0,0,.935-.444,2.174,2.174,0,0,0,.33-1.3,2.174,2.174,0,0,0-.33-1.3A1.082,1.082,0,0,0,4.441-14.345Zm0-1.343a3.275,3.275,0,0,1,2.369.822A3,3,0,0,1,7.661-12.6a3,3,0,0,1-.852,2.267,3.285,3.285,0,0,1-2.369.816,3.31,3.31,0,0,1-2.381-.816A2.985,2.985,0,0,1,1.2-12.6a2.976,2.976,0,0,1,.857-2.267A3.3,3.3,0,0,1,4.441-15.688Z" transform="translate(-1.203 15.688)"/>
      </g>
      <g id="Groupe_144" data-name="Groupe 144" transform="translate(111.52 228.665)">
        <path id="Tracé_393" data-name="Tracé 393" d="M.328-18.99H2.2v5.768a2.591,2.591,0,0,1-.57,1.8,2.1,2.1,0,0,1-1.643.624H-.937v-1.235h.33a.916.916,0,0,0,.732-.24,1.569,1.569,0,0,0,.2-.953Zm0-2.291H2.2v1.535H.328Z" transform="translate(0.937 21.281)"/>
      </g>
      <g id="Groupe_145" data-name="Groupe 145" transform="translate(116.025 230.812)">
        <path id="Tracé_394" data-name="Tracé 394" d="M7.512-12.623v.54h-4.4a1.4,1.4,0,0,0,.48.989,1.772,1.772,0,0,0,1.145.33,4.421,4.421,0,0,0,1.211-.174,6.412,6.412,0,0,0,1.277-.534v1.445A7.917,7.917,0,0,1,5.9-9.649a6.91,6.91,0,0,1-1.331.132,3.546,3.546,0,0,1-2.483-.81A2.93,2.93,0,0,1,1.2-12.6a2.96,2.96,0,0,1,.869-2.261,3.318,3.318,0,0,1,2.387-.827,2.99,2.99,0,0,1,2.219.84,3.013,3.013,0,0,1,.834,2.225Zm-1.931-.624a1.189,1.189,0,0,0-.312-.858,1.075,1.075,0,0,0-.816-.33,1.28,1.28,0,0,0-.887.306,1.406,1.406,0,0,0-.426.881Z" transform="translate(-1.203 15.688)"/>
      </g>
      <g id="Groupe_146" data-name="Groupe 146" transform="translate(123.314 230.812)">
        <path id="Tracé_395" data-name="Tracé 395" d="M6.39-15.357v1.529a2.921,2.921,0,0,0-.768-.39,2.544,2.544,0,0,0-.8-.126,1.624,1.624,0,0,0-1.229.462A1.776,1.776,0,0,0,3.158-12.6,1.786,1.786,0,0,0,3.6-11.316a1.632,1.632,0,0,0,1.229.456,2.737,2.737,0,0,0,.834-.126,2.461,2.461,0,0,0,.732-.39v1.535A5.079,5.079,0,0,1,5.5-9.6a5,5,0,0,1-.911.084A3.566,3.566,0,0,1,2.1-10.332,2.908,2.908,0,0,1,1.2-12.6,2.919,2.919,0,0,1,2.1-14.872a3.573,3.573,0,0,1,2.489-.816A5,5,0,0,1,5.5-15.6a5.017,5.017,0,0,1,.893.246Z" transform="translate(-1.203 15.687)"/>
      </g>
      <g id="Groupe_147" data-name="Groupe 147" transform="translate(129.364 229.289)">
        <path id="Tracé_396" data-name="Tracé 396" d="M3.187-19.656v1.667H5.124v1.343H3.187v2.495a.725.725,0,0,0,.162.552,1.01,1.01,0,0,0,.642.144h.965v1.343H3.349a2.205,2.205,0,0,1-1.583-.462A2.193,2.193,0,0,1,1.3-14.151v-2.495H.375v-1.343H1.3v-1.667Z" transform="translate(-0.375 19.656)"/>
      </g>
    </g>
    <rect id="Rectangle_1476" data-name="Rectangle 1476" width="182" height="32" transform="translate(228 1235)" fill="#89fc00"/>
  </g>
</svg>
