<svg xmlns="http://www.w3.org/2000/svg" width="176" height="211" viewBox="0 0 176 211">
  <g id="globe" transform="translate(-20 -1243)">
    <g id="noun-globe-1063493" transform="translate(33.468 1243)">
      <path id="Tracé_397" data-name="Tracé 397" d="M144.443,0a74.443,74.443,0,1,0,74.443,74.443A74.662,74.662,0,0,0,144.443,0ZM103.5,128.726A67.261,67.261,0,0,1,76.514,76l9.616.931,7.444,6.514,3.412,2.792L93.574,96.778,103.81,112.6v6.514l1.241,3.722Zm40.944,13.958a67.363,67.363,0,0,1-28.536-6.2l1.241-7.444H121.8l.931-6.514-1.241-3.722,5.273-1.861,4.653-6.2-3.1-6.514,4.963-3.722L119.319,90.264l-.62-5.583-6.2.62V78.787l-7.134,1.551-.932-5.894H92.023L89.542,67l5.894-5.894,6.2-2.792,2.792-9.925,5.894-.62,5.273-7.444,5.894-4.033-3.722-8.064-7.444-2.482L121.8,22.954l9.305,4.342,4.342-4.963L146,19.23l3.1-9.616L143.2,6.2h1.241a68.937,68.937,0,0,1,34.43,9.305l-4.342,1.861-12.717,9.305,1.861,7.444-6.825,6.515-7.444,1.241,3.1,8.685-.62,6.514-6.514,12.1V79.1l8.375,7.444,13.958-.931V95.846l2.792,5.894-1.861,11.166,5.273,16.13,8.375-2.481,3.412-5.894,1.551-8.375,5.894-4.033V94.606l7.755-15.2-2.172-3.1,12.717-9.616a75.963,75.963,0,0,1,.62,8.375c.621,36.913-30.086,67.621-67.618,67.621Z" transform="translate(-70)"/>
      <g id="Groupe_148" data-name="Groupe 148" transform="translate(0.773 183.903)">
        <path id="Tracé_398" data-name="Tracé 398" d="M12.523-32.4a7.436,7.436,0,0,1-1.674.627,7.667,7.667,0,0,1-1.815.212,6.212,6.212,0,0,1-4.478-1.579,5.648,5.648,0,0,1-1.649-4.283,5.656,5.656,0,0,1,1.649-4.287A6.2,6.2,0,0,1,9.033-43.3a7.668,7.668,0,0,1,1.815.212,7.35,7.35,0,0,1,1.674.631v2.339a6.413,6.413,0,0,0-1.6-.81,5.294,5.294,0,0,0-1.658-.258,3.132,3.132,0,0,0-2.455,1,3.977,3.977,0,0,0-.893,2.754,3.979,3.979,0,0,0,.893,2.75,3.136,3.136,0,0,0,2.455,1,5.264,5.264,0,0,0,1.658-.258,6.342,6.342,0,0,0,1.6-.81Z" transform="translate(-2.906 43.296)"/>
      </g>
      <g id="Groupe_149" data-name="Groupe 149" transform="translate(40.218 184.526)">
        <path id="Tracé_399" data-name="Tracé 399" d="M4.824-40.953v2.409h2.8v1.936h-2.8v3.6a1.05,1.05,0,0,0,.233.8A1.483,1.483,0,0,0,5.991-32H7.383v1.94H5.061a3.15,3.15,0,0,1-2.277-.669,3.159,3.159,0,0,1-.669-2.276v-3.6H.765v-1.936h1.35v-2.409Z" transform="translate(-0.765 40.953)"/>
      </g>
      <g id="Groupe_150" data-name="Groupe 150" transform="translate(58.645 183.633)">
        <path id="Tracé_400" data-name="Tracé 400" d="M9-39.771v-4.541h2.729v11.781H9v-1.225a3.654,3.654,0,0,1-1.234,1.1,3.337,3.337,0,0,1-1.558.349,3.17,3.17,0,0,1-2.576-1.246,4.942,4.942,0,0,1-1.005-3.207,4.944,4.944,0,0,1,1.005-3.207,3.17,3.17,0,0,1,2.576-1.246,3.323,3.323,0,0,1,1.554.353A3.722,3.722,0,0,1,9-39.771ZM7.212-34.28a1.536,1.536,0,0,0,1.329-.636A3.147,3.147,0,0,0,9-36.764a3.149,3.149,0,0,0-.457-1.849,1.536,1.536,0,0,0-1.329-.636,1.526,1.526,0,0,0-1.321.636,3.142,3.142,0,0,0-.457,1.849,3.139,3.139,0,0,0,.457,1.849A1.526,1.526,0,0,0,7.212-34.28Z" transform="translate(-2.625 44.312)"/>
      </g>
      <g id="Groupe_151" data-name="Groupe 151" transform="translate(75.752 183.632)">
        <path id="Tracé_401" data-name="Tracé 401" d="M9.417-34.28a1.532,1.532,0,0,0,1.325-.636,3.123,3.123,0,0,0,.461-1.849,3.125,3.125,0,0,0-.461-1.849,1.532,1.532,0,0,0-1.325-.636,1.554,1.554,0,0,0-1.338.64,3.1,3.1,0,0,0-.465,1.844A3.1,3.1,0,0,0,8.08-34.92,1.551,1.551,0,0,0,9.417-34.28Zm-1.8-5.492a3.743,3.743,0,0,1,1.242-1.093,3.363,3.363,0,0,1,1.566-.353A3.164,3.164,0,0,1,13-39.971,4.95,4.95,0,0,1,14-36.765,4.948,4.948,0,0,1,13-33.558a3.164,3.164,0,0,1-2.576,1.246,3.362,3.362,0,0,1-1.566-.353,3.721,3.721,0,0,1-1.242-1.093v1.226H4.906V-44.313H7.614Z" transform="translate(-4.906 44.313)"/>
      </g>
      <g id="Groupe_152" data-name="Groupe 152" transform="translate(101.831 183.903)">
        <path id="Tracé_402" data-name="Tracé 402" d="M12.523-32.4a7.436,7.436,0,0,1-1.674.627,7.667,7.667,0,0,1-1.815.212,6.212,6.212,0,0,1-4.478-1.579,5.648,5.648,0,0,1-1.649-4.283,5.656,5.656,0,0,1,1.649-4.287A6.2,6.2,0,0,1,9.033-43.3a7.668,7.668,0,0,1,1.815.212,7.35,7.35,0,0,1,1.674.631v2.339a6.413,6.413,0,0,0-1.6-.81,5.294,5.294,0,0,0-1.658-.258,3.132,3.132,0,0,0-2.455,1,3.977,3.977,0,0,0-.893,2.754,3.979,3.979,0,0,0,.893,2.75,3.136,3.136,0,0,0,2.455,1,5.264,5.264,0,0,0,1.658-.258,6.342,6.342,0,0,0,1.6-.81Z" transform="translate(-2.906 43.296)"/>
      </g>
      <g id="Groupe_153" data-name="Groupe 153" transform="translate(141.276 184.526)">
        <path id="Tracé_403" data-name="Tracé 403" d="M4.824-40.953v2.409h2.8v1.936h-2.8v3.6a1.05,1.05,0,0,0,.233.8A1.483,1.483,0,0,0,5.991-32H7.383v1.94H5.061a3.15,3.15,0,0,1-2.277-.669,3.159,3.159,0,0,1-.669-2.276v-3.6H.765v-1.936h1.35v-2.409Z" transform="translate(-0.765 40.953)"/>
      </g>
      <g id="Groupe_154" data-name="Groupe 154" transform="translate(149.791 183.632)">
        <path id="Tracé_404" data-name="Tracé 404" d="M4.906-41.01H7.615v8.479H4.906Zm0-3.3H7.615v2.21H4.906Z" transform="translate(-4.906 44.313)"/>
      </g>
    </g>
    <rect id="Rectangle_1477" data-name="Rectangle 1477" width="176" height="31" transform="translate(20 1423)" fill="#89fc00"/>
  </g>
</svg>
