<svg xmlns="http://www.w3.org/2000/svg" width="176.61" height="222" viewBox="0 0 176.61 222">
  <g id="gym" transform="translate(-30 -544)">
    <g id="noun-sport-1179268" transform="translate(-25.562 536.336)">
      <path id="Tracé_243" data-name="Tracé 243" d="M332.053,25.219A17.555,17.555,0,1,1,314.5,7.664a17.554,17.554,0,0,1,17.555,17.555" transform="translate(-156.879)"/>
      <path id="Tracé_244" data-name="Tracé 244" d="M160.086,294.11l35.135,3.3-.542,5.766-35.135-3.3Z" transform="translate(-61.663 -198.503)"/>
      <path id="Tracé_245" data-name="Tracé 245" d="M275.269,122.111l-3.8-3.076a2.58,2.58,0,0,0-3.619.362l-3.077,3.8-19.546-15.564,3.076-3.8a2.783,2.783,0,0,0-.362-3.619l-3.8-3.076a2.58,2.58,0,0,0-3.619.362l-9.773,12.126a2.58,2.58,0,0,0,.362,3.619l3.8,3.076a2.58,2.58,0,0,0,3.619-.362l2.9-3.619,3.257,2.534a4.772,4.772,0,0,0-1.085.905l-14.3,14.478-22.26-17.193a21.414,21.414,0,0,0-22.441-2.172l-26.242,13.392a7.619,7.619,0,0,0-4.163,7.239l1.266,26.422-2.894-.362.362-4.706a2.538,2.538,0,0,0-2.353-2.9l-4.886-.362a2.635,2.635,0,0,0-2.9,2.353l-1.448,15.383a2.635,2.635,0,0,0,2.353,2.9l4.886.362a2.635,2.635,0,0,0,2.9-2.353l.362-4.706,4.163.362a7.932,7.932,0,0,0,7.6,5.972h.362a7.9,7.9,0,0,0,6.7-4.525l3.076.362-.362,5.067a2.635,2.635,0,0,0,2.353,2.9l4.886.362h.362a2.7,2.7,0,0,0,2.534-2.353l1.448-15.383a2.452,2.452,0,0,0-2.353-2.9l-4.886-.362h-.362a2.7,2.7,0,0,0-2.534,2.353l-.542,4.344-3.076-.362-1.087-23.707,8.686-4.344-.9,18.642h.181l4.706.362a5.411,5.411,0,0,1,3.8,1.81,5.556,5.556,0,0,1,1.448,4.344l-1.266,15.383a5.625,5.625,0,0,1-5.429,4.886H180.8l-4.525-.362-15.926,23.528-22.984,19.182a8.652,8.652,0,0,0-.905,12.307,8.967,8.967,0,0,0,6.7,3.076,8.421,8.421,0,0,0,5.61-2.172l23.346-20.088a16.306,16.306,0,0,0,1.629-1.81l16.832-24.794,20.088,13.573-6.7,26.242a8.466,8.466,0,0,0,8.507,10.858,8.906,8.906,0,0,0,8.506-6.516l8.144-32.215a8.794,8.794,0,0,0-3.619-9.411l-20.088-13.573a10.529,10.529,0,0,0,.543-3.438l1.81-38.187L225.5,146.541a7.762,7.762,0,0,0,10.316-.724l19-19.365a6.883,6.883,0,0,0,1.629-2.353l4.706,3.8-3.076,3.8a2.58,2.58,0,0,0,.362,3.619l3.8,3.076a2.58,2.58,0,0,0,3.619-.362l9.773-12.126a2.5,2.5,0,0,0-.366-3.8Z" transform="translate(-44.172 -61.602)"/>
      <g id="Groupe_1" data-name="Groupe 1" transform="translate(70.841 197.671)">
        <path id="Tracé_246" data-name="Tracé 246" d="M7.076-15.524a4.274,4.274,0,0,1-.974.369,4.463,4.463,0,0,1-1.06.125,3.627,3.627,0,0,1-2.614-.921,3.3,3.3,0,0,1-.959-2.5,3.305,3.305,0,0,1,.959-2.5,3.627,3.627,0,0,1,2.614-.921,4.463,4.463,0,0,1,1.06.125,4.5,4.5,0,0,1,.974.365v1.367a3.693,3.693,0,0,0-.931-.47,3.059,3.059,0,0,0-.969-.154,1.82,1.82,0,0,0-1.43.585,2.315,2.315,0,0,0-.523,1.607,2.323,2.323,0,0,0,.523,1.607,1.824,1.824,0,0,0,1.43.58,3.126,3.126,0,0,0,.969-.149,3.757,3.757,0,0,0,.931-.475Z" transform="translate(-1.468 21.875)"/>
      </g>
      <g id="Groupe_2" data-name="Groupe 2" transform="translate(77.788 199.321)">
        <path id="Tracé_247" data-name="Tracé 247" d="M6.148-15.036a2.054,2.054,0,0,0-.417-.139,1.822,1.822,0,0,0-.413-.048,1.163,1.163,0,0,0-.94.393,1.691,1.691,0,0,0-.326,1.118v2.279H2.469v-4.946H4.052v.811a2.018,2.018,0,0,1,.7-.705A1.881,1.881,0,0,1,5.7-16.5c.05,0,.107,0,.168,0s.155.013.273.029Z" transform="translate(-2.469 16.499)"/>
      </g>
      <g id="Groupe_3" data-name="Groupe 3" transform="translate(81.881 199.321)">
        <path id="Tracé_248" data-name="Tracé 248" d="M6.575-13.919v.446h-3.7a1.188,1.188,0,0,0,.4.84,1.5,1.5,0,0,0,.964.278A3.715,3.715,0,0,0,5.266-12.5a5.2,5.2,0,0,0,1.075-.451v1.218a6.371,6.371,0,0,1-1.123.321A5.839,5.839,0,0,1,4.1-11.3a2.973,2.973,0,0,1-2.087-.681A2.476,2.476,0,0,1,1.265-13.9a2.488,2.488,0,0,1,.729-1.9,2.814,2.814,0,0,1,2.015-.7,2.514,2.514,0,0,1,1.866.705,2.538,2.538,0,0,1,.7,1.876Zm-1.626-.528a1,1,0,0,0-.264-.724A.907.907,0,0,0,4-15.45a1.076,1.076,0,0,0-.748.259,1.208,1.208,0,0,0-.355.744Z" transform="translate(-1.265 16.5)"/>
      </g>
      <g id="Groupe_4" data-name="Groupe 4" transform="translate(88.019 199.321)">
        <path id="Tracé_249" data-name="Tracé 249" d="M3.856-13.66a1.367,1.367,0,0,0-.748.168A.558.558,0,0,0,2.858-13a.592.592,0,0,0,.2.475.847.847,0,0,0,.561.168.985.985,0,0,0,.748-.321,1.116,1.116,0,0,0,.307-.8v-.182Zm2.413-.595v2.821H4.676v-.734a2.019,2.019,0,0,1-.715.657,2.1,2.1,0,0,1-.969.206,1.756,1.756,0,0,1-1.247-.446,1.524,1.524,0,0,1-.48-1.166,1.426,1.426,0,0,1,.6-1.276,3.41,3.41,0,0,1,1.88-.408h.931v-.125a.587.587,0,0,0-.3-.547,1.846,1.846,0,0,0-.921-.177,4.191,4.191,0,0,0-.945.1,3.216,3.216,0,0,0-.815.307V-16.25a8.787,8.787,0,0,1,1.022-.187A8.655,8.655,0,0,1,3.746-16.5a2.863,2.863,0,0,1,1.928.528,2.2,2.2,0,0,1,.595,1.717Z" transform="translate(-1.266 16.5)"/>
      </g>
      <g id="Groupe_5" data-name="Groupe 5" transform="translate(93.856 198.035)">
        <path id="Tracé_250" data-name="Tracé 250" d="M2.756-20.688v1.406H4.387v1.127H2.756v2.1a.6.6,0,0,0,.139.465.867.867,0,0,0,.542.12h.815v1.132H2.895a1.852,1.852,0,0,1-1.329-.389,1.852,1.852,0,0,1-.389-1.329v-2.1H.391v-1.127h.787v-1.406Z" transform="translate(-0.391 20.688)"/>
      </g>
      <g id="Groupe_6" data-name="Groupe 6" transform="translate(98.45 199.321)">
        <path id="Tracé_251" data-name="Tracé 251" d="M6.575-13.919v.446h-3.7a1.188,1.188,0,0,0,.4.84,1.5,1.5,0,0,0,.964.278A3.715,3.715,0,0,0,5.266-12.5a5.2,5.2,0,0,0,1.075-.451v1.218a6.371,6.371,0,0,1-1.123.321A5.839,5.839,0,0,1,4.1-11.3a2.973,2.973,0,0,1-2.087-.681A2.476,2.476,0,0,1,1.265-13.9a2.488,2.488,0,0,1,.729-1.9,2.814,2.814,0,0,1,2.015-.7,2.514,2.514,0,0,1,1.866.705,2.538,2.538,0,0,1,.7,1.876Zm-1.626-.528a1,1,0,0,0-.264-.724A.907.907,0,0,0,4-15.45a1.076,1.076,0,0,0-.748.259,1.208,1.208,0,0,0-.355.744Z" transform="translate(-1.265 16.5)"/>
      </g>
      <g id="Groupe_7" data-name="Groupe 7" transform="translate(104.608 197.512)">
        <path id="Tracé_252" data-name="Tracé 252" d="M5.046-19.738v-2.653H6.639v6.874H5.046v-.715a2.174,2.174,0,0,1-.72.643,1.974,1.974,0,0,1-.911.2,1.852,1.852,0,0,1-1.5-.724,2.9,2.9,0,0,1-.585-1.876,2.873,2.873,0,0,1,.585-1.866,1.849,1.849,0,0,1,1.5-.729,1.936,1.936,0,0,1,.907.206,2.122,2.122,0,0,1,.724.638Zm-1.041,3.2a.889.889,0,0,0,.772-.369,1.823,1.823,0,0,0,.269-1.079,1.817,1.817,0,0,0-.269-1.075.887.887,0,0,0-.772-.374.892.892,0,0,0-.772.374,1.808,1.808,0,0,0-.269,1.075,1.815,1.815,0,0,0,.269,1.079A.894.894,0,0,0,4.005-16.538Z" transform="translate(-1.329 22.391)"/>
      </g>
      <g id="Groupe_8" data-name="Groupe 8" transform="translate(114.584 197.512)">
        <path id="Tracé_253" data-name="Tracé 253" d="M5.1-16.538a.9.9,0,0,0,.777-.369,1.823,1.823,0,0,0,.269-1.079,1.817,1.817,0,0,0-.269-1.075.9.9,0,0,0-.777-.374.91.91,0,0,0-.782.374,1.821,1.821,0,0,0-.269,1.075,1.83,1.83,0,0,0,.269,1.079A.912.912,0,0,0,5.1-16.538Zm-1.051-3.2a2.1,2.1,0,0,1,.724-.638,1.972,1.972,0,0,1,.916-.206,1.839,1.839,0,0,1,1.5.729,2.862,2.862,0,0,1,.59,1.866,2.885,2.885,0,0,1-.59,1.876,1.841,1.841,0,0,1-1.5.724,1.972,1.972,0,0,1-.916-.206,2.151,2.151,0,0,1-.724-.638v.715H2.469v-6.874H4.052Z" transform="translate(-2.469 22.391)"/>
      </g>
      <g id="Groupe_9" data-name="Groupe 9" transform="translate(120.415 199.441)">
        <path id="Tracé_254" data-name="Tracé 254" d="M.359-16.109H1.942l1.329,3.353L4.4-16.109H5.982L3.9-10.693A2.648,2.648,0,0,1,3.17-9.542a1.725,1.725,0,0,1-1.1.331H1.156v-1.036H1.65a1.031,1.031,0,0,0,.585-.13.848.848,0,0,0,.283-.461l.048-.134Z" transform="translate(-0.359 16.109)"/>
      </g>
      <g id="Groupe_10" data-name="Groupe 10" transform="translate(130.183 197.791)">
        <path id="Tracé_255" data-name="Tracé 255" d="M4.406-20.2v4.025h.609A2.234,2.234,0,0,0,6.6-16.688a1.969,1.969,0,0,0,.552-1.506,1.949,1.949,0,0,0-.547-1.492A2.247,2.247,0,0,0,5.015-20.2ZM2.7-21.485H4.5a8.54,8.54,0,0,1,2.235.216,2.928,2.928,0,0,1,1.262.724,2.842,2.842,0,0,1,.691,1.031,3.635,3.635,0,0,1,.225,1.319,3.7,3.7,0,0,1-.225,1.334,2.832,2.832,0,0,1-.691,1.031,2.983,2.983,0,0,1-1.271.729,8.706,8.706,0,0,1-2.226.211H2.7Z" transform="translate(-2.703 21.485)"/>
      </g>
      <g id="Groupe_11" data-name="Groupe 11" transform="translate(137.695 197.791)">
        <path id="Tracé_256" data-name="Tracé 256" d="M2.7-21.484H5.529a2.935,2.935,0,0,1,1.928.561,1.946,1.946,0,0,1,.676,1.593,1.959,1.959,0,0,1-.676,1.6,2.948,2.948,0,0,1-1.928.556H4.406v2.288H2.7Zm1.7,1.233v1.842h.94a1.106,1.106,0,0,0,.763-.24.865.865,0,0,0,.269-.681.859.859,0,0,0-.269-.681,1.112,1.112,0,0,0-.763-.24Z" transform="translate(-2.703 21.484)"/>
      </g>
      <g id="Groupe_12" data-name="Groupe 12" transform="translate(144.327 197.791)">
        <path id="Tracé_257" data-name="Tracé 257" d="M2.7-21.484h1.7v6.6H2.7Z" transform="translate(-2.703 21.484)"/>
      </g>
      <g id="Groupe_13" data-name="Groupe 13" transform="translate(147.252 199.321)">
        <path id="Tracé_258" data-name="Tracé 258" d="M5.636-16.226v1.29a2.566,2.566,0,0,0-.648-.326,2.115,2.115,0,0,0-.676-.11,1.354,1.354,0,0,0-1.031.389A1.514,1.514,0,0,0,2.916-13.9,1.52,1.52,0,0,0,3.28-12.82a1.361,1.361,0,0,0,1.031.384,2.194,2.194,0,0,0,.705-.11,2.1,2.1,0,0,0,.619-.326v1.3a4.623,4.623,0,0,1-.758.2,4.086,4.086,0,0,1-.763.072,3.006,3.006,0,0,1-2.1-.686A2.466,2.466,0,0,1,1.266-13.9a2.452,2.452,0,0,1,.753-1.909,3.011,3.011,0,0,1,2.1-.686,4.432,4.432,0,0,1,.768.067,4.451,4.451,0,0,1,.753.206Z" transform="translate(-1.266 16.5)"/>
      </g>
      <g id="Groupe_14" data-name="Groupe 14" transform="translate(152.616 199.321)">
        <path id="Tracé_259" data-name="Tracé 259" d="M3.991-15.373a.934.934,0,0,0-.8.379A1.846,1.846,0,0,0,2.916-13.9a1.841,1.841,0,0,0,.273,1.089.931.931,0,0,0,.8.379.915.915,0,0,0,.792-.379A1.841,1.841,0,0,0,5.056-13.9a1.846,1.846,0,0,0-.273-1.089A.918.918,0,0,0,3.991-15.373Zm0-1.127a2.764,2.764,0,0,1,2,.691,2.508,2.508,0,0,1,.72,1.9A2.521,2.521,0,0,1,5.986-12a2.764,2.764,0,0,1-2,.691A2.786,2.786,0,0,1,1.986-12a2.521,2.521,0,0,1-.72-1.909,2.508,2.508,0,0,1,.72-1.9A2.786,2.786,0,0,1,3.991-16.5Z" transform="translate(-1.266 16.5)"/>
      </g>
      <g id="Groupe_15" data-name="Groupe 15" transform="translate(159.202 199.321)">
        <path id="Tracé_260" data-name="Tracé 260" d="M7.444-14.446v3.013H5.856v-2.307c0-.425-.01-.72-.029-.883a.863.863,0,0,0-.1-.355.632.632,0,0,0-.254-.245.739.739,0,0,0-.36-.086.913.913,0,0,0-.777.384,1.75,1.75,0,0,0-.283,1.06v2.432H2.469V-16.38H4.052v.724a2.418,2.418,0,0,1,.758-.638A1.939,1.939,0,0,1,5.7-16.5a1.6,1.6,0,0,1,1.3.528,2.292,2.292,0,0,1,.446,1.525Z" transform="translate(-2.469 16.5)"/>
      </g>
      <g id="Groupe_16" data-name="Groupe 16" transform="translate(165.356 199.321)">
        <path id="Tracé_261" data-name="Tracé 261" d="M5.685-16.226v1.2a6.011,6.011,0,0,0-.983-.317,4.114,4.114,0,0,0-.887-.106,1.5,1.5,0,0,0-.672.115.366.366,0,0,0-.216.345.329.329,0,0,0,.163.293,1.579,1.579,0,0,0,.595.149l.278.038A3.331,3.331,0,0,1,5.594-14a1.373,1.373,0,0,1,.422,1.108,1.344,1.344,0,0,1-.585,1.19,3.08,3.08,0,0,1-1.737.4,6.707,6.707,0,0,1-1.017-.082,8.422,8.422,0,0,1-1.075-.23v-1.2a4.611,4.611,0,0,0,.969.345,4.479,4.479,0,0,0,1.012.115,1.462,1.462,0,0,0,.7-.13.412.412,0,0,0,.235-.379.347.347,0,0,0-.163-.317,1.668,1.668,0,0,0-.638-.163l-.278-.034a2.92,2.92,0,0,1-1.482-.489,1.349,1.349,0,0,1-.422-1.089,1.33,1.33,0,0,1,.537-1.166,2.889,2.889,0,0,1,1.65-.379,6.719,6.719,0,0,1,.921.067,9.1,9.1,0,0,1,1.046.206Z" transform="translate(-1.531 16.5)"/>
      </g>
      <g id="Groupe_17" data-name="Groupe 17" transform="translate(70.562 206.561)">
        <path id="Tracé_262" data-name="Tracé 262" d="M4.4-22.391v1.036H3.532a.69.69,0,0,0-.47.125.561.561,0,0,0-.13.422v.345H4.28v1.127H2.932v3.819H1.349v-3.819H.562v-1.127h.787v-.345A1.484,1.484,0,0,1,1.8-22a2.1,2.1,0,0,1,1.4-.389Z" transform="translate(-0.562 22.391)"/>
      </g>
      <g id="Groupe_18" data-name="Groupe 18" transform="translate(75.085 208.37)">
        <path id="Tracé_263" data-name="Tracé 263" d="M6.148-15.036a2.054,2.054,0,0,0-.417-.139,1.822,1.822,0,0,0-.413-.048,1.163,1.163,0,0,0-.94.393,1.691,1.691,0,0,0-.326,1.118v2.279H2.469v-4.946H4.052v.811a2.018,2.018,0,0,1,.7-.705A1.881,1.881,0,0,1,5.7-16.5c.05,0,.107,0,.168,0s.155.013.273.029Z" transform="translate(-2.469 16.499)"/>
      </g>
      <g id="Groupe_19" data-name="Groupe 19" transform="translate(79.178 208.37)">
        <path id="Tracé_264" data-name="Tracé 264" d="M3.991-15.373a.934.934,0,0,0-.8.379A1.846,1.846,0,0,0,2.916-13.9a1.841,1.841,0,0,0,.273,1.089.931.931,0,0,0,.8.379.915.915,0,0,0,.792-.379A1.841,1.841,0,0,0,5.056-13.9a1.846,1.846,0,0,0-.273-1.089A.918.918,0,0,0,3.991-15.373Zm0-1.127a2.764,2.764,0,0,1,2,.691,2.508,2.508,0,0,1,.72,1.9A2.521,2.521,0,0,1,5.986-12a2.764,2.764,0,0,1-2,.691A2.786,2.786,0,0,1,1.986-12a2.521,2.521,0,0,1-.72-1.909,2.508,2.508,0,0,1,.72-1.9A2.786,2.786,0,0,1,3.991-16.5Z" transform="translate(-1.266 16.5)"/>
      </g>
      <g id="Groupe_20" data-name="Groupe 20" transform="translate(85.758 208.369)">
        <path id="Tracé_265" data-name="Tracé 265" d="M7.044-15.56a2.159,2.159,0,0,1,.715-.7,1.773,1.773,0,0,1,.907-.24,1.609,1.609,0,0,1,1.3.528,2.292,2.292,0,0,1,.446,1.525v3.013H8.819v-2.581c0-.038,0-.078,0-.12s0-.1,0-.177a1.437,1.437,0,0,0-.154-.758.549.549,0,0,0-.5-.24.783.783,0,0,0-.7.374,2,2,0,0,0-.254,1.075v2.427H5.638v-2.581a2.415,2.415,0,0,0-.144-1.055.535.535,0,0,0-.5-.24.8.8,0,0,0-.705.374,1.956,1.956,0,0,0-.245,1.07v2.432H2.453V-16.38H4.041v.724a2.052,2.052,0,0,1,.667-.633,1.686,1.686,0,0,1,.835-.211,1.665,1.665,0,0,1,.907.249,1.54,1.54,0,0,1,.595.691Z" transform="translate(-2.453 16.5)"/>
      </g>
      <g id="Groupe_21" data-name="Groupe 21" transform="translate(97.705 207.084)">
        <path id="Tracé_266" data-name="Tracé 266" d="M2.756-20.688v1.406H4.387v1.127H2.756v2.1a.6.6,0,0,0,.139.465.867.867,0,0,0,.542.12h.815v1.132H2.895a1.852,1.852,0,0,1-1.329-.389,1.852,1.852,0,0,1-.389-1.329v-2.1H.391v-1.127h.787v-1.406Z" transform="translate(-0.391 20.688)"/>
      </g>
      <g id="Groupe_22" data-name="Groupe 22" transform="translate(102.668 206.561)">
        <path id="Tracé_267" data-name="Tracé 267" d="M7.444-18.529v3.013H5.856v-2.3q0-.648-.029-.892a.863.863,0,0,0-.1-.355.632.632,0,0,0-.254-.245.739.739,0,0,0-.36-.086.913.913,0,0,0-.777.384,1.75,1.75,0,0,0-.283,1.06v2.432H2.469v-6.874H4.052v2.653a2.418,2.418,0,0,1,.758-.638,1.939,1.939,0,0,1,.892-.206,1.6,1.6,0,0,1,1.3.528,2.292,2.292,0,0,1,.446,1.525Z" transform="translate(-2.469 22.391)"/>
      </g>
      <g id="Groupe_23" data-name="Groupe 23" transform="translate(108.741 208.369)">
        <path id="Tracé_268" data-name="Tracé 268" d="M6.575-13.919v.446h-3.7a1.188,1.188,0,0,0,.4.84,1.5,1.5,0,0,0,.964.278A3.715,3.715,0,0,0,5.266-12.5a5.2,5.2,0,0,0,1.075-.451v1.218a6.371,6.371,0,0,1-1.123.321A5.839,5.839,0,0,1,4.1-11.3a2.973,2.973,0,0,1-2.087-.681A2.476,2.476,0,0,1,1.265-13.9a2.488,2.488,0,0,1,.729-1.9,2.814,2.814,0,0,1,2.015-.7,2.514,2.514,0,0,1,1.866.705,2.538,2.538,0,0,1,.7,1.876Zm-1.626-.528a1,1,0,0,0-.264-.724A.907.907,0,0,0,4-15.45a1.076,1.076,0,0,0-.748.259,1.208,1.208,0,0,0-.355.744Z" transform="translate(-1.265 16.5)"/>
      </g>
      <g id="Groupe_24" data-name="Groupe 24" transform="translate(118.47 206.839)">
        <path id="Tracé_269" data-name="Tracé 269" d="M2.7-21.484H4.6L7-16.96v-4.524H8.613v6.6h-1.9l-2.4-4.524v4.524H2.7Z" transform="translate(-2.703 21.484)"/>
      </g>
      <g id="Groupe_25" data-name="Groupe 25" transform="translate(125.602 208.37)">
        <path id="Tracé_270" data-name="Tracé 270" d="M3.991-15.373a.934.934,0,0,0-.8.379A1.846,1.846,0,0,0,2.916-13.9a1.841,1.841,0,0,0,.273,1.089.931.931,0,0,0,.8.379.915.915,0,0,0,.792-.379A1.841,1.841,0,0,0,5.056-13.9a1.846,1.846,0,0,0-.273-1.089A.918.918,0,0,0,3.991-15.373Zm0-1.127a2.764,2.764,0,0,1,2,.691,2.508,2.508,0,0,1,.72,1.9A2.521,2.521,0,0,1,5.986-12a2.764,2.764,0,0,1-2,.691A2.786,2.786,0,0,1,1.986-12a2.521,2.521,0,0,1-.72-1.909,2.508,2.508,0,0,1,.72-1.9A2.786,2.786,0,0,1,3.991-16.5Z" transform="translate(-1.266 16.5)"/>
      </g>
      <g id="Groupe_26" data-name="Groupe 26" transform="translate(132.135 208.489)">
        <path id="Tracé_271" data-name="Tracé 271" d="M2.3-13.092v-3.017H3.89v.494c0,.269,0,.607,0,1.012s0,.672,0,.806q0,.6.029.859a.942.942,0,0,0,.11.384.673.673,0,0,0,.249.24.774.774,0,0,0,.365.082.918.918,0,0,0,.777-.379,1.733,1.733,0,0,0,.283-1.055v-2.442H7.271v4.946H5.693v-.715a2.47,2.47,0,0,1-.763.638,1.894,1.894,0,0,1-.878.206,1.631,1.631,0,0,1-1.31-.523A2.318,2.318,0,0,1,2.3-13.092Z" transform="translate(-2.297 16.109)"/>
      </g>
      <g id="Groupe_27" data-name="Groupe 27" transform="translate(138.63 208.37)">
        <path id="Tracé_272" data-name="Tracé 272" d="M7.444-14.446v3.013H5.856v-2.307c0-.425-.01-.72-.029-.883a.863.863,0,0,0-.1-.355.632.632,0,0,0-.254-.245.739.739,0,0,0-.36-.086.913.913,0,0,0-.777.384,1.75,1.75,0,0,0-.283,1.06v2.432H2.469V-16.38H4.052v.724a2.418,2.418,0,0,1,.758-.638A1.939,1.939,0,0,1,5.7-16.5a1.6,1.6,0,0,1,1.3.528,2.292,2.292,0,0,1,.446,1.525Z" transform="translate(-2.469 16.5)"/>
      </g>
      <g id="Groupe_28" data-name="Groupe 28" transform="translate(148.294 206.839)">
        <path id="Tracé_273" data-name="Tracé 273" d="M2.7-21.484H5.529a2.935,2.935,0,0,1,1.928.561,1.946,1.946,0,0,1,.676,1.593,1.959,1.959,0,0,1-.676,1.6,2.948,2.948,0,0,1-1.928.556H4.406v2.288H2.7Zm1.7,1.233v1.842h.94a1.106,1.106,0,0,0,.763-.24.865.865,0,0,0,.269-.681.859.859,0,0,0-.269-.681,1.112,1.112,0,0,0-.763-.24Z" transform="translate(-2.703 21.484)"/>
      </g>
      <g id="Groupe_29" data-name="Groupe 29" transform="translate(154.854 208.37)">
        <path id="Tracé_274" data-name="Tracé 274" d="M6.148-15.036a2.054,2.054,0,0,0-.417-.139,1.822,1.822,0,0,0-.413-.048,1.163,1.163,0,0,0-.94.393,1.691,1.691,0,0,0-.326,1.118v2.279H2.469v-4.946H4.052v.811a2.018,2.018,0,0,1,.7-.705A1.881,1.881,0,0,1,5.7-16.5c.05,0,.107,0,.168,0s.155.013.273.029Z" transform="translate(-2.469 16.499)"/>
      </g>
      <g id="Groupe_30" data-name="Groupe 30" transform="translate(158.947 208.37)">
        <path id="Tracé_275" data-name="Tracé 275" d="M3.991-15.373a.934.934,0,0,0-.8.379A1.846,1.846,0,0,0,2.916-13.9a1.841,1.841,0,0,0,.273,1.089.931.931,0,0,0,.8.379.915.915,0,0,0,.792-.379A1.841,1.841,0,0,0,5.056-13.9a1.846,1.846,0,0,0-.273-1.089A.918.918,0,0,0,3.991-15.373Zm0-1.127a2.764,2.764,0,0,1,2,.691,2.508,2.508,0,0,1,.72,1.9A2.521,2.521,0,0,1,5.986-12a2.764,2.764,0,0,1-2,.691A2.786,2.786,0,0,1,1.986-12a2.521,2.521,0,0,1-.72-1.909,2.508,2.508,0,0,1,.72-1.9A2.786,2.786,0,0,1,3.991-16.5Z" transform="translate(-1.266 16.5)"/>
      </g>
      <g id="Groupe_31" data-name="Groupe 31" transform="translate(164.473 206.561)">
        <path id="Tracé_276" data-name="Tracé 276" d="M.076-20.462H1.659V-15.6a2.171,2.171,0,0,1-.48,1.516A1.774,1.774,0,0,1-.2-13.564H-.984V-14.6h.273a.77.77,0,0,0,.619-.206,1.325,1.325,0,0,0,.168-.8Zm0-1.928H1.659v1.29H.076Z" transform="translate(0.984 22.39)"/>
      </g>
      <g id="Groupe_32" data-name="Groupe 32" transform="translate(168.265 208.369)">
        <path id="Tracé_277" data-name="Tracé 277" d="M6.575-13.919v.446h-3.7a1.188,1.188,0,0,0,.4.84,1.5,1.5,0,0,0,.964.278A3.715,3.715,0,0,0,5.266-12.5a5.2,5.2,0,0,0,1.075-.451v1.218a6.371,6.371,0,0,1-1.123.321A5.839,5.839,0,0,1,4.1-11.3a2.973,2.973,0,0,1-2.087-.681A2.476,2.476,0,0,1,1.265-13.9a2.488,2.488,0,0,1,.729-1.9,2.814,2.814,0,0,1,2.015-.7,2.514,2.514,0,0,1,1.866.705,2.538,2.538,0,0,1,.7,1.876Zm-1.626-.528a1,1,0,0,0-.264-.724A.907.907,0,0,0,4-15.45a1.076,1.076,0,0,0-.748.259,1.208,1.208,0,0,0-.355.744Z" transform="translate(-1.265 16.5)"/>
      </g>
      <g id="Groupe_33" data-name="Groupe 33" transform="translate(174.403 208.37)">
        <path id="Tracé_278" data-name="Tracé 278" d="M5.636-16.226v1.29a2.566,2.566,0,0,0-.648-.326,2.115,2.115,0,0,0-.676-.11,1.354,1.354,0,0,0-1.031.389A1.514,1.514,0,0,0,2.916-13.9,1.52,1.52,0,0,0,3.28-12.82a1.361,1.361,0,0,0,1.031.384,2.194,2.194,0,0,0,.705-.11,2.1,2.1,0,0,0,.619-.326v1.3a4.623,4.623,0,0,1-.758.2,4.086,4.086,0,0,1-.763.072,3.006,3.006,0,0,1-2.1-.686A2.466,2.466,0,0,1,1.266-13.9a2.452,2.452,0,0,1,.753-1.909,3.011,3.011,0,0,1,2.1-.686,4.432,4.432,0,0,1,.768.067,4.451,4.451,0,0,1,.753.206Z" transform="translate(-1.266 16.5)"/>
      </g>
      <g id="Groupe_34" data-name="Groupe 34" transform="translate(179.498 207.084)">
        <path id="Tracé_279" data-name="Tracé 279" d="M2.756-20.688v1.406H4.387v1.127H2.756v2.1a.6.6,0,0,0,.139.465.867.867,0,0,0,.542.12h.815v1.132H2.895a1.852,1.852,0,0,1-1.329-.389,1.852,1.852,0,0,1-.389-1.329v-2.1H.391v-1.127h.787v-1.406Z" transform="translate(-0.391 20.688)"/>
      </g>
    </g>
    <rect id="Rectangle_1472" data-name="Rectangle 1472" width="153" height="36" transform="translate(30 730)" fill="#89fc00"/>
  </g>
</svg>
