<svg xmlns="http://www.w3.org/2000/svg" width="169" height="227.276" viewBox="0 0 169 227.276">
  <g id="infos" transform="translate(-35 -777.724)">
    <g id="noun-info-176677" transform="translate(-23.531 744.685)">
      <path id="Tracé_280" data-name="Tracé 280" d="M176.372,60.144c1.274-27.287,24.194-27.105,26.377-27.105s25.1-.364,26.377,27.105c0,0,4.366,40.93-26.2,41.294h-.363c-30.744-.364-26.2-41.294-26.2-41.294Zm56.393,113.332H146.72V143.46c.181-8.914,2-14.917,10.915-20.556,12.007-7.459,25.286-14.008,25.286-14.008l10.551,33.654,6.185-17.646c-10.915-15.28.727-16.009,2.911-16.009,2,0,13.825.727,2.911,16.009l6.185,17.646L222.214,108.9s13.279,6.549,25.286,14.008c9.1,5.639,10.733,11.824,10.915,20.556v4c-14.009-.181-25.651,11.461-25.651,26.014ZM258.6,143.461Zm-111.876,0Zm132.251,30.015a20.192,20.192,0,1,1-20.192-20.192A20.263,20.263,0,0,1,278.971,173.475Zm-22.739-9.823a3.745,3.745,0,0,0,3.457,3.638,3.578,3.578,0,0,0,3.457-3.457,3.345,3.345,0,0,0-3.457-3.457,3.108,3.108,0,0,0-3.457,3.275Zm7.64,19.282a3.988,3.988,0,0,0-.91.546,3.385,3.385,0,0,1-1.274.364,1,1,0,0,1-1.091-.727,2.7,2.7,0,0,1-.181-1.274c.181-.91.181-1.637.364-2.547.364-2.547.91-4.912,1.274-7.459a7.481,7.481,0,0,0,.181-2,1.244,1.244,0,0,0-1.274-1.274H253.5c-.546.181-.727.364-.727.727a1,1,0,0,0,.546.91,2.312,2.312,0,0,0,1.091.181c.91.181,1.274.364,1.274,1.274v.364q-.546,3.274-1.091,6.549-.272,1.911-.546,3.821a3.777,3.777,0,0,0,2.911,3.821,12.038,12.038,0,0,0,2.547.181,6.2,6.2,0,0,0,4.548-2,3.96,3.96,0,0,0,.546-.91c.18-.364-.184-.727-.73-.546Z" transform="translate(-51.439 0)"/>
      <g id="Groupe_35" data-name="Groupe 35" transform="translate(70.811 224.755)">
        <path id="Tracé_281" data-name="Tracé 281" d="M7.035-14.4a4.322,4.322,0,0,1-.985.365,4.427,4.427,0,0,1-1.066.127,3.641,3.641,0,0,1-2.624-.924,3.313,3.313,0,0,1-.969-2.512,3.305,3.305,0,0,1,.969-2.512,3.633,3.633,0,0,1,2.624-.929,4.427,4.427,0,0,1,1.066.127,4.321,4.321,0,0,1,.985.365v1.37a3.9,3.9,0,0,0-.939-.472,3.1,3.1,0,0,0-.975-.152,1.822,1.822,0,0,0-1.436.589,2.333,2.333,0,0,0-.523,1.614,2.341,2.341,0,0,0,.523,1.614,1.827,1.827,0,0,0,1.436.584,3.169,3.169,0,0,0,.975-.147,3.792,3.792,0,0,0,.939-.477Z" transform="translate(-1.391 20.781)"/>
      </g>
      <g id="Groupe_36" data-name="Groupe 36" transform="translate(77.8 226.41)">
        <path id="Tracé_282" data-name="Tracé 282" d="M6.054-14.211a2.2,2.2,0,0,0-.421-.142,1.737,1.737,0,0,0-.411-.051,1.158,1.158,0,0,0-.944.4,1.69,1.69,0,0,0-.33,1.122v2.294H2.359v-4.974H3.948v.817a2.019,2.019,0,0,1,.7-.711,1.893,1.893,0,0,1,.954-.228,1.691,1.691,0,0,1,.173.01c.063,0,.155.013.274.025Z" transform="translate(-2.359 15.687)"/>
      </g>
      <g id="Groupe_37" data-name="Groupe 37" transform="translate(81.911 226.41)">
        <path id="Tracé_283" data-name="Tracé 283" d="M6.543-13.094v.457H2.823a1.183,1.183,0,0,0,.406.837,1.5,1.5,0,0,0,.969.279,3.742,3.742,0,0,0,1.025-.147A5.427,5.427,0,0,0,6.3-12.119V-10.9a6.7,6.7,0,0,1-1.127.32,5.849,5.849,0,0,1-1.127.112,3,3,0,0,1-2.1-.685A2.48,2.48,0,0,1,1.2-13.074a2.506,2.506,0,0,1,.736-1.914,2.808,2.808,0,0,1,2.02-.7,2.53,2.53,0,0,1,1.878.711,2.55,2.55,0,0,1,.706,1.883Zm-1.634-.528a1.007,1.007,0,0,0-.264-.726.91.91,0,0,0-.69-.279,1.083,1.083,0,0,0-.751.259,1.19,1.19,0,0,0-.36.746Z" transform="translate(-1.203 15.688)"/>
      </g>
      <g id="Groupe_38" data-name="Groupe 38" transform="translate(88.079 226.41)">
        <path id="Tracé_284" data-name="Tracé 284" d="M3.807-12.83a1.37,1.37,0,0,0-.751.167.56.56,0,0,0-.249.5.59.59,0,0,0,.2.477.85.85,0,0,0,.558.167,1,1,0,0,0,.756-.32,1.125,1.125,0,0,0,.31-.807v-.183Zm2.426-.6v2.837h-1.6v-.736a2.054,2.054,0,0,1-.721.66,2.152,2.152,0,0,1-.975.2,1.768,1.768,0,0,1-1.254-.447A1.529,1.529,0,0,1,1.2-12.084a1.436,1.436,0,0,1,.6-1.279A3.421,3.421,0,0,1,3.7-13.774h.939V-13.9a.588.588,0,0,0-.3-.548,1.887,1.887,0,0,0-.929-.178,4.274,4.274,0,0,0-.954.1,3.292,3.292,0,0,0-.812.3v-1.213a9.673,9.673,0,0,1,1.02-.188A8.342,8.342,0,0,1,3.7-15.688a2.87,2.87,0,0,1,1.939.533,2.2,2.2,0,0,1,.6,1.726Z" transform="translate(-1.203 15.688)"/>
      </g>
      <g id="Groupe_39" data-name="Groupe 39" transform="translate(93.948 225.12)">
        <path id="Tracé_285" data-name="Tracé 285" d="M2.755-19.656v1.411H4.395v1.137H2.755V-15a.614.614,0,0,0,.137.467.855.855,0,0,0,.543.122h.817v1.137H2.893a1.867,1.867,0,0,1-1.34-.391A1.857,1.857,0,0,1,1.162-15v-2.111H.375v-1.137h.787v-1.411Z" transform="translate(-0.375 19.656)"/>
      </g>
      <g id="Groupe_40" data-name="Groupe 40" transform="translate(98.565 226.41)">
        <path id="Tracé_286" data-name="Tracé 286" d="M6.543-13.094v.457H2.823a1.183,1.183,0,0,0,.406.837,1.5,1.5,0,0,0,.969.279,3.742,3.742,0,0,0,1.025-.147A5.427,5.427,0,0,0,6.3-12.119V-10.9a6.7,6.7,0,0,1-1.127.32,5.849,5.849,0,0,1-1.127.112,3,3,0,0,1-2.1-.685A2.48,2.48,0,0,1,1.2-13.074a2.506,2.506,0,0,1,.736-1.914,2.808,2.808,0,0,1,2.02-.7,2.53,2.53,0,0,1,1.878.711,2.55,2.55,0,0,1,.706,1.883Zm-1.634-.528a1.007,1.007,0,0,0-.264-.726.91.91,0,0,0-.69-.279,1.083,1.083,0,0,0-.751.259,1.19,1.19,0,0,0-.36.746Z" transform="translate(-1.203 15.688)"/>
      </g>
      <g id="Groupe_41" data-name="Groupe 41" transform="translate(104.754 224.593)">
        <path id="Tracé_287" data-name="Tracé 287" d="M5-18.616v-2.665H6.6v6.913H5v-.721a2.093,2.093,0,0,1-.721.645,2,2,0,0,1-.919.2,1.85,1.85,0,0,1-1.507-.731,2.894,2.894,0,0,1-.589-1.878,2.9,2.9,0,0,1,.589-1.883,1.85,1.85,0,0,1,1.507-.731,1.94,1.94,0,0,1,.914.208,2.2,2.2,0,0,1,.726.64ZM3.956-15.393a.9.9,0,0,0,.777-.371A1.852,1.852,0,0,0,5-16.85a1.832,1.832,0,0,0-.269-1.081.9.9,0,0,0-.777-.376.9.9,0,0,0-.777.376,1.823,1.823,0,0,0-.269,1.081,1.843,1.843,0,0,0,.269,1.086A.9.9,0,0,0,3.956-15.393Z" transform="translate(-1.266 21.281)"/>
      </g>
      <g id="Groupe_42" data-name="Groupe 42" transform="translate(114.786 224.593)">
        <path id="Tracé_288" data-name="Tracé 288" d="M5-15.393a.906.906,0,0,0,.782-.371,1.852,1.852,0,0,0,.269-1.086,1.832,1.832,0,0,0-.269-1.081A.9.9,0,0,0,5-18.307a.915.915,0,0,0-.787.376,1.839,1.839,0,0,0-.269,1.081,1.833,1.833,0,0,0,.269,1.081A.912.912,0,0,0,5-15.393ZM3.948-18.616a2.252,2.252,0,0,1,.726-.64,1.968,1.968,0,0,1,.919-.208,1.857,1.857,0,0,1,1.513.731,2.911,2.911,0,0,1,.589,1.883,2.9,2.9,0,0,1-.589,1.878,1.857,1.857,0,0,1-1.513.731,2.015,2.015,0,0,1-.919-.2,2.2,2.2,0,0,1-.726-.645v.721H2.359v-6.913H3.948Z" transform="translate(-2.359 21.281)"/>
      </g>
      <g id="Groupe_43" data-name="Groupe 43" transform="translate(120.644 226.532)">
        <path id="Tracé_289" data-name="Tracé 289" d="M.344-15.312H1.932l1.34,3.375,1.137-3.375H6L3.907-9.866a2.657,2.657,0,0,1-.736,1.157,1.727,1.727,0,0,1-1.106.335H1.141V-9.419h.5a1.027,1.027,0,0,0,.589-.132.83.83,0,0,0,.289-.457l.046-.137Z" transform="translate(-0.344 15.312)"/>
      </g>
      <g id="Groupe_44" data-name="Groupe 44" transform="translate(130.079 224.755)">
        <path id="Tracé_290" data-name="Tracé 290" d="M7.735-14.523a6.156,6.156,0,0,1-1.33.467,6.538,6.538,0,0,1-1.421.152,3.641,3.641,0,0,1-2.624-.924,3.313,3.313,0,0,1-.969-2.512,3.28,3.28,0,0,1,.985-2.523,3.823,3.823,0,0,1,2.705-.919,6.2,6.2,0,0,1,1.264.127,5.288,5.288,0,0,1,1.147.365v1.37a5,5,0,0,0-1.106-.467,3.989,3.989,0,0,0-1.1-.157,2.091,2.091,0,0,0-1.579.574,2.255,2.255,0,0,0-.548,1.629A2.3,2.3,0,0,0,3.7-15.716a1.959,1.959,0,0,0,1.513.574,3.742,3.742,0,0,0,.492-.03,1.8,1.8,0,0,0,.411-.107v-1.289H5.071V-17.71H7.735Z" transform="translate(-1.391 20.781)"/>
      </g>
      <g id="Groupe_45" data-name="Groupe 45" transform="translate(137.859 226.41)">
        <path id="Tracé_291" data-name="Tracé 291" d="M6.054-14.211a2.2,2.2,0,0,0-.421-.142,1.737,1.737,0,0,0-.411-.051,1.158,1.158,0,0,0-.944.4,1.69,1.69,0,0,0-.33,1.122v2.294H2.359v-4.974H3.948v.817a2.019,2.019,0,0,1,.7-.711,1.893,1.893,0,0,1,.954-.228,1.691,1.691,0,0,1,.173.01c.063,0,.155.013.274.025Z" transform="translate(-2.359 15.687)"/>
      </g>
      <g id="Groupe_46" data-name="Groupe 46" transform="translate(141.969 226.41)">
        <path id="Tracé_292" data-name="Tracé 292" d="M6.543-13.094v.457H2.823a1.183,1.183,0,0,0,.406.837,1.5,1.5,0,0,0,.969.279,3.742,3.742,0,0,0,1.025-.147A5.427,5.427,0,0,0,6.3-12.119V-10.9a6.7,6.7,0,0,1-1.127.32,5.849,5.849,0,0,1-1.127.112,3,3,0,0,1-2.1-.685A2.48,2.48,0,0,1,1.2-13.074a2.506,2.506,0,0,1,.736-1.914,2.808,2.808,0,0,1,2.02-.7,2.53,2.53,0,0,1,1.878.711,2.55,2.55,0,0,1,.706,1.883Zm-1.634-.528a1.007,1.007,0,0,0-.264-.726.91.91,0,0,0-.69-.279,1.083,1.083,0,0,0-.751.259,1.19,1.19,0,0,0-.36.746Z" transform="translate(-1.203 15.688)"/>
      </g>
      <g id="Groupe_47" data-name="Groupe 47" transform="translate(148.159 226.42)">
        <path id="Tracé_293" data-name="Tracé 293" d="M5-11.413a2.183,2.183,0,0,1-.721.64,1.984,1.984,0,0,1-.919.2,1.868,1.868,0,0,1-1.5-.716,2.775,2.775,0,0,1-.594-1.827,2.756,2.756,0,0,1,.594-1.827,1.868,1.868,0,0,1,1.5-.716,1.954,1.954,0,0,1,.919.208,2.128,2.128,0,0,1,.721.64v-.736H6.6v4.472A2.26,2.26,0,0,1,5.844-9.24a3.342,3.342,0,0,1-2.2.634,5.624,5.624,0,0,1-.9-.071A5.763,5.763,0,0,1,1.87-8.9v-1.238a3.973,3.973,0,0,0,.817.355,2.88,2.88,0,0,0,.807.117A1.629,1.629,0,0,0,4.636-10,1.4,1.4,0,0,0,5-11.073Zm-1.046-3.1a.915.915,0,0,0-.772.365,1.677,1.677,0,0,0-.274,1.03,1.713,1.713,0,0,0,.264,1.035.924.924,0,0,0,.782.35.911.911,0,0,0,.772-.36A1.678,1.678,0,0,0,5-13.113a1.677,1.677,0,0,0-.274-1.03.909.909,0,0,0-.772-.365Z" transform="translate(-1.266 15.656)"/>
      </g>
      <g id="Groupe_48" data-name="Groupe 48" transform="translate(154.648 226.41)">
        <path id="Tracé_294" data-name="Tracé 294" d="M3.944-14.551a.937.937,0,0,0-.807.381,1.831,1.831,0,0,0-.279,1.1,1.831,1.831,0,0,0,.279,1.1.94.94,0,0,0,.807.376.918.918,0,0,0,.792-.376,1.84,1.84,0,0,0,.279-1.1,1.84,1.84,0,0,0-.279-1.1A.916.916,0,0,0,3.944-14.551Zm0-1.137a2.772,2.772,0,0,1,2,.7,2.535,2.535,0,0,1,.721,1.919,2.543,2.543,0,0,1-.721,1.919,2.78,2.78,0,0,1-2,.69,2.8,2.8,0,0,1-2.015-.69A2.527,2.527,0,0,1,1.2-13.074a2.519,2.519,0,0,1,.726-1.919A2.793,2.793,0,0,1,3.944-15.688Z" transform="translate(-1.203 15.688)"/>
      </g>
      <g id="Groupe_49" data-name="Groupe 49" transform="translate(161.273 226.41)">
        <path id="Tracé_295" data-name="Tracé 295" d="M6.054-14.211a2.2,2.2,0,0,0-.421-.142,1.737,1.737,0,0,0-.411-.051,1.158,1.158,0,0,0-.944.4,1.69,1.69,0,0,0-.33,1.122v2.294H2.359v-4.974H3.948v.817a2.019,2.019,0,0,1,.7-.711,1.893,1.893,0,0,1,.954-.228,1.691,1.691,0,0,1,.173.01c.063,0,.155.013.274.025Z" transform="translate(-2.359 15.687)"/>
      </g>
      <g id="Groupe_50" data-name="Groupe 50" transform="translate(168.612 224.755)">
        <path id="Tracé_296" data-name="Tracé 296" d="M7.035-14.4a4.322,4.322,0,0,1-.985.365,4.427,4.427,0,0,1-1.066.127,3.641,3.641,0,0,1-2.624-.924,3.313,3.313,0,0,1-.969-2.512,3.305,3.305,0,0,1,.969-2.512,3.633,3.633,0,0,1,2.624-.929,4.427,4.427,0,0,1,1.066.127,4.321,4.321,0,0,1,.985.365v1.37a3.9,3.9,0,0,0-.939-.472,3.1,3.1,0,0,0-.975-.152,1.822,1.822,0,0,0-1.436.589,2.333,2.333,0,0,0-.523,1.614,2.341,2.341,0,0,0,.523,1.614,1.827,1.827,0,0,0,1.436.584,3.169,3.169,0,0,0,.975-.147,3.792,3.792,0,0,0,.939-.477Z" transform="translate(-1.391 20.781)"/>
      </g>
      <g id="Groupe_51" data-name="Groupe 51" transform="translate(175.601 226.41)">
        <path id="Tracé_297" data-name="Tracé 297" d="M6.054-14.211a2.2,2.2,0,0,0-.421-.142,1.737,1.737,0,0,0-.411-.051,1.158,1.158,0,0,0-.944.4,1.69,1.69,0,0,0-.33,1.122v2.294H2.359v-4.974H3.948v.817a2.019,2.019,0,0,1,.7-.711,1.893,1.893,0,0,1,.954-.228,1.691,1.691,0,0,1,.173.01c.063,0,.155.013.274.025Z" transform="translate(-2.359 15.687)"/>
      </g>
      <g id="Groupe_52" data-name="Groupe 52" transform="translate(179.711 226.41)">
        <path id="Tracé_298" data-name="Tracé 298" d="M6.543-13.094v.457H2.823a1.183,1.183,0,0,0,.406.837,1.5,1.5,0,0,0,.969.279,3.742,3.742,0,0,0,1.025-.147A5.427,5.427,0,0,0,6.3-12.119V-10.9a6.7,6.7,0,0,1-1.127.32,5.849,5.849,0,0,1-1.127.112,3,3,0,0,1-2.1-.685A2.48,2.48,0,0,1,1.2-13.074a2.506,2.506,0,0,1,.736-1.914,2.808,2.808,0,0,1,2.02-.7,2.53,2.53,0,0,1,1.878.711,2.55,2.55,0,0,1,.706,1.883Zm-1.634-.528a1.007,1.007,0,0,0-.264-.726.91.91,0,0,0-.69-.279,1.083,1.083,0,0,0-.751.259,1.19,1.19,0,0,0-.36.746Z" transform="translate(-1.203 15.688)"/>
      </g>
      <g id="Groupe_53" data-name="Groupe 53" transform="translate(185.96 226.41)">
        <path id="Tracé_299" data-name="Tracé 299" d="M5.63-15.408V-14.2a5.872,5.872,0,0,0-.985-.32,4.135,4.135,0,0,0-.9-.107,1.58,1.58,0,0,0-.675.112.369.369,0,0,0-.218.35.319.319,0,0,0,.167.289,1.587,1.587,0,0,0,.6.152l.279.041a3.4,3.4,0,0,1,1.645.513,1.377,1.377,0,0,1,.421,1.112,1.353,1.353,0,0,1-.589,1.2,3.132,3.132,0,0,1-1.746.4A7.167,7.167,0,0,1,2.6-10.541a8.205,8.205,0,0,1-1.076-.233v-1.208a4.44,4.44,0,0,0,.969.35,4.663,4.663,0,0,0,1.02.112,1.508,1.508,0,0,0,.7-.127.42.42,0,0,0,.233-.386.347.347,0,0,0-.162-.315,1.689,1.689,0,0,0-.645-.162l-.279-.036a2.9,2.9,0,0,1-1.487-.492,1.348,1.348,0,0,1-.426-1.091A1.338,1.338,0,0,1,1.991-15.3a2.9,2.9,0,0,1,1.665-.386,6.383,6.383,0,0,1,.919.071,10.145,10.145,0,0,1,1.056.208Z" transform="translate(-1.453 15.687)"/>
      </g>
      <g id="Groupe_54" data-name="Groupe 54" transform="translate(191.669 226.41)">
        <path id="Tracé_300" data-name="Tracé 300" d="M7.359-13.621v3.03H5.76v-2.32a8.506,8.506,0,0,0-.03-.888.955.955,0,0,0-.1-.36.648.648,0,0,0-.254-.239.745.745,0,0,0-.36-.086.918.918,0,0,0-.782.386,1.736,1.736,0,0,0-.284,1.061v2.446H2.359v-4.974H3.948v.726a2.539,2.539,0,0,1,.761-.64,1.934,1.934,0,0,1,.893-.208,1.613,1.613,0,0,1,1.31.533,2.32,2.32,0,0,1,.447,1.533Z" transform="translate(-2.359 15.687)"/>
      </g>
      <g id="Groupe_55" data-name="Groupe 55" transform="translate(197.769 226.41)">
        <path id="Tracé_301" data-name="Tracé 301" d="M3.807-12.83a1.37,1.37,0,0,0-.751.167.56.56,0,0,0-.249.5.59.59,0,0,0,.2.477.85.85,0,0,0,.558.167,1,1,0,0,0,.756-.32,1.125,1.125,0,0,0,.31-.807v-.183Zm2.426-.6v2.837h-1.6v-.736a2.054,2.054,0,0,1-.721.66,2.152,2.152,0,0,1-.975.2,1.768,1.768,0,0,1-1.254-.447A1.529,1.529,0,0,1,1.2-12.084a1.436,1.436,0,0,1,.6-1.279A3.421,3.421,0,0,1,3.7-13.774h.939V-13.9a.588.588,0,0,0-.3-.548,1.887,1.887,0,0,0-.929-.178,4.274,4.274,0,0,0-.954.1,3.292,3.292,0,0,0-.812.3v-1.213a9.673,9.673,0,0,1,1.02-.188A8.342,8.342,0,0,1,3.7-15.688a2.87,2.87,0,0,1,1.939.533,2.2,2.2,0,0,1,.6,1.726Z" transform="translate(-1.203 15.688)"/>
      </g>
      <g id="Groupe_56" data-name="Groupe 56" transform="translate(204.282 226.41)">
        <path id="Tracé_302" data-name="Tracé 302" d="M6.054-14.211a2.2,2.2,0,0,0-.421-.142,1.737,1.737,0,0,0-.411-.051,1.158,1.158,0,0,0-.944.4,1.69,1.69,0,0,0-.33,1.122v2.294H2.359v-4.974H3.948v.817a2.019,2.019,0,0,1,.7-.711,1.893,1.893,0,0,1,.954-.228,1.691,1.691,0,0,1,.173.01c.063,0,.155.013.274.025Z" transform="translate(-2.359 15.687)"/>
      </g>
      <g id="Groupe_57" data-name="Groupe 57" transform="translate(70.531 233.688)">
        <path id="Tracé_303" data-name="Tracé 303" d="M4.394-21.281v1.046H3.516a.712.712,0,0,0-.472.122.56.56,0,0,0-.132.426v.345h1.36v1.137H2.912v3.837H1.323v-3.837H.531v-1.137h.792v-.345a1.506,1.506,0,0,1,.452-1.2,2.114,2.114,0,0,1,1.406-.391Z" transform="translate(-0.531 21.281)"/>
      </g>
      <g id="Groupe_58" data-name="Groupe 58" transform="translate(75.082 235.505)">
        <path id="Tracé_304" data-name="Tracé 304" d="M6.054-14.211a2.2,2.2,0,0,0-.421-.142,1.737,1.737,0,0,0-.411-.051,1.158,1.158,0,0,0-.944.4,1.69,1.69,0,0,0-.33,1.122v2.294H2.359v-4.974H3.948v.817a2.019,2.019,0,0,1,.7-.711,1.893,1.893,0,0,1,.954-.228,1.691,1.691,0,0,1,.173.01c.063,0,.155.013.274.025Z" transform="translate(-2.359 15.687)"/>
      </g>
      <g id="Groupe_59" data-name="Groupe 59" transform="translate(79.193 235.505)">
        <path id="Tracé_305" data-name="Tracé 305" d="M3.944-14.551a.937.937,0,0,0-.807.381,1.831,1.831,0,0,0-.279,1.1,1.831,1.831,0,0,0,.279,1.1.94.94,0,0,0,.807.376.918.918,0,0,0,.792-.376,1.84,1.84,0,0,0,.279-1.1,1.84,1.84,0,0,0-.279-1.1A.916.916,0,0,0,3.944-14.551Zm0-1.137a2.772,2.772,0,0,1,2,.7,2.535,2.535,0,0,1,.721,1.919,2.543,2.543,0,0,1-.721,1.919,2.78,2.78,0,0,1-2,.69,2.8,2.8,0,0,1-2.015-.69A2.527,2.527,0,0,1,1.2-13.074a2.519,2.519,0,0,1,.726-1.919A2.793,2.793,0,0,1,3.944-15.688Z" transform="translate(-1.203 15.688)"/>
      </g>
      <g id="Groupe_60" data-name="Groupe 60" transform="translate(85.807 235.505)">
        <path id="Tracé_306" data-name="Tracé 306" d="M6.947-14.739a2.155,2.155,0,0,1,.716-.706,1.772,1.772,0,0,1,.914-.244,1.607,1.607,0,0,1,1.3.533,2.3,2.3,0,0,1,.452,1.533v3.03h-1.6V-13.3c0-.043.005-.1.005-.183a1.414,1.414,0,0,0-.157-.761.547.547,0,0,0-.5-.239.792.792,0,0,0-.7.376,1.95,1.95,0,0,0-.254,1.076v2.441h-1.6v-2.594a2.471,2.471,0,0,0-.142-1.061.543.543,0,0,0-.508-.239.8.8,0,0,0-.706.376,1.918,1.918,0,0,0-.249,1.071v2.446h-1.6v-4.974h1.6v.726a2.067,2.067,0,0,1,.67-.634,1.685,1.685,0,0,1,.837-.213,1.688,1.688,0,0,1,.914.249,1.566,1.566,0,0,1,.6.7Z" transform="translate(-2.328 15.688)"/>
      </g>
      <g id="Groupe_61" data-name="Groupe 61" transform="translate(97.816 234.216)">
        <path id="Tracé_307" data-name="Tracé 307" d="M2.755-19.656v1.411H4.395v1.137H2.755V-15a.614.614,0,0,0,.137.467.855.855,0,0,0,.543.122h.817v1.137H2.893a1.867,1.867,0,0,1-1.34-.391A1.857,1.857,0,0,1,1.162-15v-2.111H.375v-1.137h.787v-1.411Z" transform="translate(-0.375 19.656)"/>
      </g>
      <g id="Groupe_62" data-name="Groupe 62" transform="translate(102.809 233.688)">
        <path id="Tracé_308" data-name="Tracé 308" d="M7.359-17.4v3.03H5.76v-2.309a8.639,8.639,0,0,0-.03-.9.955.955,0,0,0-.1-.36.648.648,0,0,0-.254-.239.745.745,0,0,0-.36-.086.918.918,0,0,0-.782.386,1.736,1.736,0,0,0-.284,1.061v2.446H2.359v-6.913H3.948v2.665a2.539,2.539,0,0,1,.761-.64,1.934,1.934,0,0,1,.893-.208,1.613,1.613,0,0,1,1.31.533A2.32,2.32,0,0,1,7.359-17.4Z" transform="translate(-2.359 21.281)"/>
      </g>
      <g id="Groupe_63" data-name="Groupe 63" transform="translate(108.909 235.505)">
        <path id="Tracé_309" data-name="Tracé 309" d="M6.543-13.094v.457H2.823a1.183,1.183,0,0,0,.406.837,1.5,1.5,0,0,0,.969.279,3.742,3.742,0,0,0,1.025-.147A5.427,5.427,0,0,0,6.3-12.119V-10.9a6.7,6.7,0,0,1-1.127.32,5.849,5.849,0,0,1-1.127.112,3,3,0,0,1-2.1-.685A2.48,2.48,0,0,1,1.2-13.074a2.506,2.506,0,0,1,.736-1.914,2.808,2.808,0,0,1,2.02-.7,2.53,2.53,0,0,1,1.878.711,2.55,2.55,0,0,1,.706,1.883Zm-1.634-.528a1.007,1.007,0,0,0-.264-.726.91.91,0,0,0-.69-.279,1.083,1.083,0,0,0-.751.259,1.19,1.19,0,0,0-.36.746Z" transform="translate(-1.203 15.688)"/>
      </g>
      <g id="Groupe_64" data-name="Groupe 64" transform="translate(118.691 233.973)">
        <path id="Tracé_310" data-name="Tracé 310" d="M2.578-20.406H4.487L6.9-15.858v-4.548H8.517v6.629H6.608L4.2-18.325v4.548H2.578Z" transform="translate(-2.578 20.406)"/>
      </g>
      <g id="Groupe_65" data-name="Groupe 65" transform="translate(125.856 235.505)">
        <path id="Tracé_311" data-name="Tracé 311" d="M3.944-14.551a.937.937,0,0,0-.807.381,1.831,1.831,0,0,0-.279,1.1,1.831,1.831,0,0,0,.279,1.1.94.94,0,0,0,.807.376.918.918,0,0,0,.792-.376,1.84,1.84,0,0,0,.279-1.1,1.84,1.84,0,0,0-.279-1.1A.916.916,0,0,0,3.944-14.551Zm0-1.137a2.772,2.772,0,0,1,2,.7,2.535,2.535,0,0,1,.721,1.919,2.543,2.543,0,0,1-.721,1.919,2.78,2.78,0,0,1-2,.69,2.8,2.8,0,0,1-2.015-.69A2.527,2.527,0,0,1,1.2-13.074a2.519,2.519,0,0,1,.726-1.919A2.793,2.793,0,0,1,3.944-15.688Z" transform="translate(-1.203 15.688)"/>
      </g>
      <g id="Groupe_66" data-name="Groupe 66" transform="translate(132.424 235.627)">
        <path id="Tracé_312" data-name="Tracé 312" d="M2.188-12.277v-3.035h1.6v.5c0,.272,0,.609-.005,1.015s-.005.678-.005.812a8.547,8.547,0,0,0,.03.868,1,1,0,0,0,.107.381.7.7,0,0,0,.259.244.766.766,0,0,0,.36.081.924.924,0,0,0,.782-.381A1.742,1.742,0,0,0,5.6-12.856v-2.457H7.187v4.974H5.6v-.721a2.5,2.5,0,0,1-.761.645,1.95,1.95,0,0,1-.888.2,1.625,1.625,0,0,1-1.31-.528,2.3,2.3,0,0,1-.452-1.538Z" transform="translate(-2.188 15.313)"/>
      </g>
      <g id="Groupe_67" data-name="Groupe 67" transform="translate(138.957 235.505)">
        <path id="Tracé_313" data-name="Tracé 313" d="M7.359-13.621v3.03H5.76v-2.32a8.506,8.506,0,0,0-.03-.888.955.955,0,0,0-.1-.36.648.648,0,0,0-.254-.239.745.745,0,0,0-.36-.086.918.918,0,0,0-.782.386,1.736,1.736,0,0,0-.284,1.061v2.446H2.359v-4.974H3.948v.726a2.539,2.539,0,0,1,.761-.64,1.934,1.934,0,0,1,.893-.208,1.613,1.613,0,0,1,1.31.533,2.32,2.32,0,0,1,.447,1.533Z" transform="translate(-2.359 15.687)"/>
      </g>
      <g id="Groupe_68" data-name="Groupe 68" transform="translate(148.669 233.973)">
        <path id="Tracé_314" data-name="Tracé 314" d="M2.578-20.406H5.415a2.951,2.951,0,0,1,1.939.563,1.954,1.954,0,0,1,.68,1.6,1.966,1.966,0,0,1-.68,1.6,2.951,2.951,0,0,1-1.939.563H4.284v2.3H2.578Zm1.705,1.238v1.853h.949A1.1,1.1,0,0,0,6-17.559a.869.869,0,0,0,.274-.685A.862.862,0,0,0,6-18.929a1.122,1.122,0,0,0-.766-.239Z" transform="translate(-2.578 20.406)"/>
      </g>
      <g id="Groupe_69" data-name="Groupe 69" transform="translate(155.265 235.505)">
        <path id="Tracé_315" data-name="Tracé 315" d="M6.054-14.211a2.2,2.2,0,0,0-.421-.142,1.737,1.737,0,0,0-.411-.051,1.158,1.158,0,0,0-.944.4,1.69,1.69,0,0,0-.33,1.122v2.294H2.359v-4.974H3.948v.817a2.019,2.019,0,0,1,.7-.711,1.893,1.893,0,0,1,.954-.228,1.691,1.691,0,0,1,.173.01c.063,0,.155.013.274.025Z" transform="translate(-2.359 15.687)"/>
      </g>
      <g id="Groupe_70" data-name="Groupe 70" transform="translate(159.374 235.505)">
        <path id="Tracé_316" data-name="Tracé 316" d="M3.944-14.551a.937.937,0,0,0-.807.381,1.831,1.831,0,0,0-.279,1.1,1.831,1.831,0,0,0,.279,1.1.94.94,0,0,0,.807.376.918.918,0,0,0,.792-.376,1.84,1.84,0,0,0,.279-1.1,1.84,1.84,0,0,0-.279-1.1A.916.916,0,0,0,3.944-14.551Zm0-1.137a2.772,2.772,0,0,1,2,.7,2.535,2.535,0,0,1,.721,1.919,2.543,2.543,0,0,1-.721,1.919,2.78,2.78,0,0,1-2,.69,2.8,2.8,0,0,1-2.015-.69A2.527,2.527,0,0,1,1.2-13.074a2.519,2.519,0,0,1,.726-1.919A2.793,2.793,0,0,1,3.944-15.688Z" transform="translate(-1.203 15.688)"/>
      </g>
      <g id="Groupe_71" data-name="Groupe 71" transform="translate(164.928 233.688)">
        <path id="Tracé_317" data-name="Tracé 317" d="M.133-19.342H1.722v4.883a2.193,2.193,0,0,1-.482,1.528A1.781,1.781,0,0,1-.151-12.4H-.937v-1.046h.279a.776.776,0,0,0,.619-.2,1.328,1.328,0,0,0,.173-.807Zm0-1.939H1.722v1.3H.133Z" transform="translate(0.937 21.281)"/>
      </g>
      <g id="Groupe_72" data-name="Groupe 72" transform="translate(168.741 235.505)">
        <path id="Tracé_318" data-name="Tracé 318" d="M6.543-13.094v.457H2.823a1.183,1.183,0,0,0,.406.837,1.5,1.5,0,0,0,.969.279,3.742,3.742,0,0,0,1.025-.147A5.427,5.427,0,0,0,6.3-12.119V-10.9a6.7,6.7,0,0,1-1.127.32,5.849,5.849,0,0,1-1.127.112,3,3,0,0,1-2.1-.685A2.48,2.48,0,0,1,1.2-13.074a2.506,2.506,0,0,1,.736-1.914,2.808,2.808,0,0,1,2.02-.7,2.53,2.53,0,0,1,1.878.711,2.55,2.55,0,0,1,.706,1.883Zm-1.634-.528a1.007,1.007,0,0,0-.264-.726.91.91,0,0,0-.69-.279,1.083,1.083,0,0,0-.751.259,1.19,1.19,0,0,0-.36.746Z" transform="translate(-1.203 15.688)"/>
      </g>
      <g id="Groupe_73" data-name="Groupe 73" transform="translate(174.911 235.505)">
        <path id="Tracé_319" data-name="Tracé 319" d="M5.594-15.408v1.294a2.473,2.473,0,0,0-.65-.33,2.153,2.153,0,0,0-.675-.107,1.375,1.375,0,0,0-1.041.391,1.5,1.5,0,0,0-.371,1.086,1.512,1.512,0,0,0,.371,1.086,1.382,1.382,0,0,0,1.041.386,2.317,2.317,0,0,0,.706-.107,2.083,2.083,0,0,0,.619-.33v1.3a4.3,4.3,0,0,1-.756.2,4.236,4.236,0,0,1-.772.071,3.019,3.019,0,0,1-2.106-.69A2.461,2.461,0,0,1,1.2-13.073,2.471,2.471,0,0,1,1.96-15a3.025,3.025,0,0,1,2.106-.69,4.236,4.236,0,0,1,.772.071,4.247,4.247,0,0,1,.756.208Z" transform="translate(-1.203 15.687)"/>
      </g>
      <g id="Groupe_74" data-name="Groupe 74" transform="translate(180.032 234.216)">
        <path id="Tracé_320" data-name="Tracé 320" d="M2.755-19.656v1.411H4.395v1.137H2.755V-15a.614.614,0,0,0,.137.467.855.855,0,0,0,.543.122h.817v1.137H2.893a1.867,1.867,0,0,1-1.34-.391A1.857,1.857,0,0,1,1.162-15v-2.111H.375v-1.137h.787v-1.411Z" transform="translate(-0.375 19.656)"/>
      </g>
    </g>
    <rect id="Rectangle_1473" data-name="Rectangle 1473" width="153" height="36" transform="translate(35 969)" fill="#89fc00"/>
  </g>
</svg>
