<svg xmlns="http://www.w3.org/2000/svg" width="33.765" height="33.765" viewBox="0 0 33.765 33.765">
  <path id="icons8-instagram-circle" d="M18.882,2A16.882,16.882,0,1,0,35.765,18.882,16.9,16.9,0,0,0,18.882,2Zm-4.33,5.195H23.21a7.368,7.368,0,0,1,7.361,7.358V23.21a7.368,7.368,0,0,1-7.358,7.361H14.555a7.368,7.368,0,0,1-7.361-7.358V14.555A7.368,7.368,0,0,1,14.553,7.195Zm0,2.6a4.768,4.768,0,0,0-4.761,4.763v8.657a4.768,4.768,0,0,0,4.763,4.761h8.657a4.768,4.768,0,0,0,4.761-4.763V14.553A4.768,4.768,0,0,0,23.21,9.792Zm10.392,2.164a.866.866,0,1,1-.867.865A.865.865,0,0,1,24.945,11.955Zm-6.062.434a6.493,6.493,0,1,1-6.493,6.493A6.5,6.5,0,0,1,18.882,12.389Zm0,2.6a3.9,3.9,0,1,0,3.9,3.9A3.9,3.9,0,0,0,18.882,14.986Z" transform="translate(-2 -2)"/>
</svg>
