<svg xmlns="http://www.w3.org/2000/svg" xmlns:xlink="http://www.w3.org/1999/xlink" width="34" height="34" viewBox="0 0 34 34">
  <defs>
    <clipPath id="clip-path">
      <circle id="Ellipse_4" data-name="Ellipse 4" cx="17" cy="17" r="17" fill="#fff" stroke="#707070" stroke-width="1"/>
    </clipPath>
  </defs>
  <g id="Groupe_de_masques_3" data-name="Groupe de masques 3" clip-path="url(#clip-path)">
    <path id="icons8-phone" d="M11.056,2.945a8.116,8.116,0,0,0-8.1,8.1V28.877a8.116,8.116,0,0,0,8.1,8.1H28.885a8.116,8.116,0,0,0,8.1-8.1V11.049a8.116,8.116,0,0,0-8.1-8.1ZM14.3,9.463a1.592,1.592,0,0,1,1.258.749c.321.5.819,1.278,1.467,2.292a3.041,3.041,0,0,1,.1,3.083l-1.187,1.689a1.617,1.617,0,0,0-.169,1.557,9.951,9.951,0,0,0,5.332,5.332A1.617,1.617,0,0,0,22.666,24l1.689-1.187a3.043,3.043,0,0,1,3.083.1l2.292,1.467a1.592,1.592,0,0,1,.749,1.258A3.728,3.728,0,0,1,27.715,29.7c-.451,0-5.867.616-11.977-5.494s-5.494-11.526-5.494-11.977A3.728,3.728,0,0,1,14.3,9.463Z" transform="translate(-3.074 -2.662)"/>
  </g>
</svg>
