<svg xmlns="http://www.w3.org/2000/svg" width="268" height="69" viewBox="0 0 268 69">
  <g id="logo4" transform="translate(-39 -182)">
    <rect id="Rectangle_1470" data-name="Rectangle 1470" width="268" height="69" transform="translate(39 182)" fill="#89fc00"/>
    <g id="logo_SportIconic" data-name="logo SportIconic" transform="translate(57.655 196.725)">
      <path id="Tracé_232" data-name="Tracé 232" d="M1.895,26.012c1.083,2.13,3.23,4.259,5.867,4.259A3.379,3.379,0,0,0,11.2,27.735a2.636,2.636,0,0,0-.474-2.13,6.506,6.506,0,0,0-1.491-1.47,19.636,19.636,0,0,1-4.351-4.868,9.987,9.987,0,0,1-1.02-6.692C4.576,8.112,8.7,0,17.522,0a14.422,14.422,0,0,1,7.047,1.927L22.731,13.538c-.912-1.927-3.051-4.107-5.435-4.107a3.12,3.12,0,0,0-3.056,2.333,2.787,2.787,0,0,0,.677,2.13,13.492,13.492,0,0,0,1.627,1.571,15.05,15.05,0,0,1,4.332,4.665,9.909,9.909,0,0,1,.825,6.643c-1.124,7.1-6.992,12.777-14.192,12.777A18.575,18.575,0,0,1,0,37.978L1.895,26.012Z"/>
      <path id="Tracé_233" data-name="Tracé 233" d="M21.712,38.891,27.763.659h9.431C46.22.659,52.7,3.6,51.112,13.64c-1.573,9.938-8.139,12.98-17.074,12.727L32.056,38.891H21.712ZM37.567,8.873l-.769.051-1.4,8.823a4.746,4.746,0,0,0,5.289-4.26c.385-2.434-.588-4.614-3.124-4.614Z"/>
      <path id="Tracé_234" data-name="Tracé 234" d="M67.877,0c10.5,0,12.95,10.445,11.473,19.774S72.113,39.55,61.617,39.55,48.667,29.1,50.144,19.774,57.381,0,67.877,0ZM63.142,29.916c3.9,0,5.284-7.758,5.662-10.142S70.257,9.634,66.353,9.634s-5.285,7.758-5.662,10.141S59.238,29.916,63.142,29.916Z"/>
      <path id="Tracé_235" data-name="Tracé 235" d="M94.277,38.891,91.067,22.97l-.117.1c-.247,1.876-.442,3.753-.739,5.629L88.6,38.891H78.254L84.306.659h9.989c8.975,0,15.047,2.637,13.45,12.727A11.742,11.742,0,0,1,100.3,22.97l5.187,15.921H94.277ZM92.508,18.355c2.738,0,4.585-2.384,4.979-4.868.53-3.347-1.274-4.767-4.137-4.614L91.856,18.3l.651.051Z"/>
      <path id="Tracé_236" data-name="Tracé 236" d="M108.727,38.891l4.575-28.9h-5.679L109.1.659h21.956l-1.477,9.33h-5.933l-4.575,28.9Z"/>
      <path id="Tracé_237" data-name="Tracé 237" d="M131.7,38.891H128.15L134.2.659h3.549L131.7,38.891Z"/>
      <path id="Tracé_238" data-name="Tracé 238" d="M152,37.826a10.4,10.4,0,0,1-5.117,1.571c-8.975,0-8.439-11.713-7.4-18.254C140.458,14.958,143,.152,153.449.152a7.348,7.348,0,0,1,4.32,1.217l-.618,3.9a6.483,6.483,0,0,0-4.2-1.674c-6.186,0-8.469,8.976-9.592,16.074-.707,4.462-2.577,16.276,4.218,16.276a9.686,9.686,0,0,0,4.989-1.725l-.57,3.6Z"/>
      <path id="Tracé_239" data-name="Tracé 239" d="M177.066,19.774C175.934,26.924,173.453,39.4,164.58,39.4c-8.366,0-7.687-10.7-6.274-19.623C159.838,10.09,162.679.152,170.792.152,179.412.152,178.4,11.357,177.066,19.774Zm-15.11,0c-1.067,6.744-2.307,16.176,3.169,16.176s7.222-9.432,8.29-16.176S175.722,3.6,170.246,3.6c-5.436-.253-7.223,9.432-8.29,16.175Z"/>
      <path id="Tracé_240" data-name="Tracé 240" d="M194.934,38.891h-3.093L187.29,13.184c-.309-1.572-.34-3.3-.54-4.919h-.2c-.241,2.484-.373,4.919-.767,7.4l-3.676,23.223h-3.093L185.064.659h3.093l4.566,26.569c.248,1.318.394,2.637.54,3.955h.152c.164-1.674.183-3.4.448-5.07L197.893.659h3.093l-6.051,38.231Z"/>
      <path id="Tracé_241" data-name="Tracé 241" d="M204.621,38.891h-3.549L207.124.659h3.549l-6.052,38.231Z"/>
      <path id="Tracé_242" data-name="Tracé 242" d="M224.92,37.826A10.4,10.4,0,0,1,219.8,39.4c-8.975,0-8.439-11.713-7.4-18.254.979-6.186,3.526-20.991,13.971-20.991a7.348,7.348,0,0,1,4.32,1.217l-.618,3.9a6.483,6.483,0,0,0-4.2-1.674c-6.186,0-8.469,8.976-9.592,16.074-.707,4.462-2.577,16.276,4.218,16.276a9.686,9.686,0,0,0,4.989-1.725l-.57,3.6Z"/>
    </g>
  </g>
</svg>
